<svg xmlns="http://www.w3.org/2000/svg" viewBox="0 0 1920 1080" width="3840" height="2160">
<defs><linearGradient id="sky" x1="0" y1="0" x2="0" y2="1"><stop offset="0" stop-color="#0A1218" stop-opacity="1"/><stop offset="1" stop-color="#1F3238" stop-opacity="1"/></linearGradient><filter id="f"><feGaussianBlur stdDeviation="30"/></filter></defs>
<rect width="1920" height="1080" fill="url(#sky)"/><rect y="530" width="1920" height="580" fill="#1E3238"/><path d="M-30.5 456.5 L-47.4 489.6 L-13.6 489.6 Z M-30.5 474.1 L-52.0 507.2 L-9.0 507.2 Z M-30.5 491.7 L-56.5 524.8 L-4.4 524.8 Z M-30.5 509.3 L-61.1 542.4 L0.1 542.4 Z M-30.5 526.9 L-65.7 560.0 L4.7 560.0 Z M-32.6 549.6 h4.1 V564.0 h-4.1 Z" fill="#1E3238"/><path d="M-3.9 451.7 L-21.6 486.3 L13.8 486.3 Z M-3.9 470.1 L-26.4 504.8 L18.5 504.8 Z M-3.9 488.5 L-31.2 523.2 L23.3 523.2 Z M-3.9 506.9 L-36.0 541.6 L28.1 541.6 Z M-3.9 525.3 L-40.7 560.0 L32.9 560.0 Z M-6.1 549.2 h4.3 V564.0 h-4.3 Z" fill="#1E3238"/><path d="M28.9 494.8 L18.3 515.6 L39.6 515.6 Z M28.9 505.8 L15.4 526.7 L42.4 526.7 Z M28.9 516.9 L12.5 537.8 L45.3 537.8 Z M28.9 528.0 L9.6 548.9 L48.2 548.9 Z M28.9 539.1 L6.7 560.0 L51.1 560.0 Z M27.6 553.5 h2.6 V564.0 h-2.6 Z" fill="#1E3238"/><path d="M46.7 433.0 L26.0 473.6 L67.5 473.6 Z M46.7 454.6 L20.4 495.2 L73.1 495.2 Z M46.7 476.2 L14.8 516.8 L78.7 516.8 Z M46.7 497.8 L9.2 538.4 L84.3 538.4 Z M46.7 519.4 L3.6 560.0 L89.9 560.0 Z M44.2 547.3 h5.1 V564.0 h-5.1 Z" fill="#1E3238"/><path d="M70.6 481.3 L57.7 506.5 L83.4 506.5 Z M70.6 494.6 L54.3 519.8 L86.9 519.8 Z M70.6 508.0 L50.8 533.2 L90.4 533.2 Z M70.6 521.4 L47.3 546.6 L93.9 546.6 Z M70.6 534.8 L43.8 560.0 L97.4 560.0 Z M69.0 552.1 h3.1 V564.0 h-3.1 Z" fill="#1E3238"/><path d="M112.5 462.4 L96.6 493.6 L128.4 493.6 Z M112.5 479.0 L92.2 510.2 L132.7 510.2 Z M112.5 495.6 L87.9 526.8 L137.0 526.8 Z M112.5 512.2 L83.6 543.4 L141.4 543.4 Z M112.5 528.8 L79.3 560.0 L145.7 560.0 Z M110.5 550.2 h3.9 V564.0 h-3.9 Z" fill="#1E3238"/><path d="M150.5 461.9 L134.5 493.3 L166.5 493.3 Z M150.5 478.6 L130.1 510.0 L170.8 510.0 Z M150.5 495.2 L125.8 526.6 L175.2 526.6 Z M150.5 511.9 L121.5 543.3 L179.5 543.3 Z M150.5 528.6 L117.1 560.0 L183.8 560.0 Z M148.5 550.2 h3.9 V564.0 h-3.9 Z" fill="#1E3238"/><path d="M183.6 488.0 L171.9 511.0 L195.4 511.0 Z M183.6 500.2 L168.7 523.3 L198.6 523.3 Z M183.6 512.4 L165.5 535.5 L201.8 535.5 Z M183.6 524.7 L162.3 547.8 L204.9 547.8 Z M183.6 536.9 L159.1 560.0 L208.1 560.0 Z M182.2 552.8 h2.9 V564.0 h-2.9 Z" fill="#1E3238"/><path d="M216.7 430.6 L195.6 472.0 L237.8 472.0 Z M216.7 452.6 L189.8 494.0 L243.5 494.0 Z M216.7 474.6 L184.1 516.0 L249.3 516.0 Z M216.7 496.6 L178.4 538.0 L255.0 538.0 Z M216.7 518.6 L172.7 560.0 L260.7 560.0 Z M214.1 547.1 h5.2 V564.0 h-5.2 Z" fill="#1E3238"/><path d="M247.0 440.7 L227.5 478.9 L266.5 478.9 Z M247.0 461.0 L222.3 499.2 L271.7 499.2 Z M247.0 481.3 L217.0 519.4 L277.0 519.4 Z M247.0 501.5 L211.7 539.7 L282.3 539.7 Z M247.0 521.8 L206.4 560.0 L287.6 560.0 Z M244.6 548.1 h4.8 V564.0 h-4.8 Z" fill="#1E3238"/><path d="M281.0 494.9 L270.3 515.7 L291.6 515.7 Z M281.0 505.9 L267.4 526.8 L294.5 526.8 Z M281.0 517.0 L264.6 537.9 L297.3 537.9 Z M281.0 528.1 L261.7 548.9 L300.2 548.9 Z M281.0 539.2 L258.8 560.0 L303.1 560.0 Z M279.7 553.5 h2.6 V564.0 h-2.6 Z" fill="#1E3238"/><path d="M317.0 452.7 L299.5 487.0 L334.5 487.0 Z M317.0 471.0 L294.8 505.3 L339.3 505.3 Z M317.0 489.2 L290.0 523.5 L344.0 523.5 Z M317.0 507.4 L285.3 541.8 L348.8 541.8 Z M317.0 525.7 L280.6 560.0 L353.5 560.0 Z M314.9 549.3 h4.3 V564.0 h-4.3 Z" fill="#1E3238"/><path d="M341.9 497.5 L331.7 517.5 L352.1 517.5 Z M341.9 508.1 L329.0 528.1 L354.9 528.1 Z M341.9 518.8 L326.2 538.8 L357.6 538.8 Z M341.9 529.4 L323.4 549.4 L360.4 549.4 Z M341.9 540.0 L320.7 560.0 L363.2 560.0 Z M340.7 553.8 h2.5 V564.0 h-2.5 Z" fill="#1E3238"/><path d="M380.6 462.2 L364.7 493.5 L396.6 493.5 Z M380.6 478.8 L360.3 510.1 L400.9 510.1 Z M380.6 495.4 L356.0 526.7 L405.2 526.7 Z M380.6 512.1 L351.7 543.4 L409.6 543.4 Z M380.6 528.7 L347.4 560.0 L413.9 560.0 Z M378.7 550.2 h3.9 V564.0 h-3.9 Z" fill="#1E3238"/><path d="M415.7 429.7 L394.5 471.4 L437.0 471.4 Z M415.7 451.8 L388.7 493.5 L442.8 493.5 Z M415.7 474.0 L382.9 515.7 L448.5 515.7 Z M415.7 496.2 L377.2 537.8 L454.3 537.8 Z M415.7 518.3 L371.4 560.0 L460.0 560.0 Z M413.1 547.0 h5.2 V564.0 h-5.2 Z" fill="#1E3238"/><path d="M450.7 426.3 L428.9 469.1 L472.5 469.1 Z M450.7 449.0 L423.0 491.8 L478.5 491.8 Z M450.7 471.8 L417.1 514.5 L484.4 514.5 Z M450.7 494.5 L411.2 537.3 L490.3 537.3 Z M450.7 517.2 L405.3 560.0 L496.2 560.0 Z M448.1 546.6 h5.3 V564.0 h-5.3 Z" fill="#1E3238"/><path d="M477.9 435.9 L457.7 475.6 L498.2 475.6 Z M477.9 457.0 L452.2 496.7 L503.6 496.7 Z M477.9 478.1 L446.7 517.8 L509.1 517.8 Z M477.9 499.2 L441.2 538.9 L514.6 538.9 Z M477.9 520.3 L435.7 560.0 L520.1 560.0 Z M475.4 547.6 h5.0 V564.0 h-5.0 Z" fill="#1E3238"/><path d="M506.3 425.2 L484.3 468.3 L528.3 468.3 Z M506.3 448.1 L478.3 491.2 L534.3 491.2 Z M506.3 471.0 L472.4 514.2 L540.2 514.2 Z M506.3 493.9 L466.4 537.1 L546.2 537.1 Z M506.3 516.8 L460.4 560.0 L552.1 560.0 Z M503.6 546.5 h5.4 V564.0 h-5.4 Z" fill="#1E3238"/><path d="M545.3 492.2 L534.3 513.9 L556.4 513.9 Z M545.3 503.7 L531.3 525.4 L559.4 525.4 Z M545.3 515.3 L528.3 536.9 L562.4 536.9 Z M545.3 526.8 L525.3 548.5 L565.4 548.5 Z M545.3 538.3 L522.3 560.0 L568.4 560.0 Z M544.0 553.2 h2.7 V564.0 h-2.7 Z" fill="#1E3238"/><path d="M566.2 482.6 L553.5 507.4 L578.8 507.4 Z M566.2 495.8 L550.1 520.5 L582.2 520.5 Z M566.2 508.9 L546.7 533.7 L585.6 533.7 Z M566.2 522.1 L543.3 546.8 L589.0 546.8 Z M566.2 535.2 L539.9 560.0 L592.5 560.0 Z M564.6 552.3 h3.1 V564.0 h-3.1 Z" fill="#1E3238"/><path d="M607.3 465.1 L591.8 495.5 L622.8 495.5 Z M607.3 481.2 L587.6 511.6 L627.0 511.6 Z M607.3 497.4 L583.4 527.7 L631.2 527.7 Z M607.3 513.5 L579.2 543.9 L635.4 543.9 Z M607.3 529.6 L575.0 560.0 L639.6 560.0 Z M605.4 550.5 h3.8 V564.0 h-3.8 Z" fill="#1E3238"/><path d="M640.2 475.9 L626.4 502.8 L653.9 502.8 Z M640.2 490.2 L622.7 517.1 L657.6 517.1 Z M640.2 504.5 L619.0 531.4 L661.3 531.4 Z M640.2 518.8 L615.3 545.7 L665.0 545.7 Z M640.2 533.1 L611.6 560.0 L668.8 560.0 Z M638.5 551.6 h3.4 V564.0 h-3.4 Z" fill="#1E3238"/><path d="M670.1 469.1 L655.3 498.2 L684.9 498.2 Z M670.1 484.6 L651.2 513.7 L688.9 513.7 Z M670.1 500.0 L647.2 529.1 L693.0 529.1 Z M670.1 515.5 L643.2 544.6 L697.0 544.6 Z M670.1 530.9 L639.2 560.0 L701.0 560.0 Z M668.3 550.9 h3.6 V564.0 h-3.6 Z" fill="#1E3238"/><path d="M696.2 453.2 L678.8 487.4 L713.6 487.4 Z M696.2 471.4 L674.0 505.5 L718.3 505.5 Z M696.2 489.5 L669.3 523.7 L723.1 523.7 Z M696.2 507.7 L664.6 541.8 L727.8 541.8 Z M696.2 525.8 L659.9 560.0 L732.5 560.0 Z M694.1 549.3 h4.3 V564.0 h-4.3 Z" fill="#1E3238"/><path d="M728.0 427.7 L706.4 470.0 L749.6 470.0 Z M728.0 450.2 L700.6 492.5 L755.5 492.5 Z M728.0 472.7 L694.7 515.0 L761.3 515.0 Z M728.0 495.2 L688.9 537.5 L767.1 537.5 Z M728.0 517.7 L683.0 560.0 L773.0 560.0 Z M725.4 546.8 h5.3 V564.0 h-5.3 Z" fill="#1E3238"/><path d="M762.2 425.7 L740.3 468.7 L784.1 468.7 Z M762.2 448.5 L734.4 491.5 L790.1 491.5 Z M762.2 471.4 L728.4 514.3 L796.0 514.3 Z M762.2 494.2 L722.5 537.2 L801.9 537.2 Z M762.2 517.0 L716.5 560.0 L807.9 560.0 Z M759.5 546.6 h5.4 V564.0 h-5.4 Z" fill="#1E3238"/><path d="M800.7 420.7 L778.0 465.3 L823.4 465.3 Z M800.7 444.4 L771.8 489.0 L829.6 489.0 Z M800.7 468.1 L765.7 512.6 L835.7 512.6 Z M800.7 491.8 L759.5 536.3 L841.9 536.3 Z M800.7 515.4 L753.3 560.0 L848.0 560.0 Z M797.9 546.1 h5.6 V564.0 h-5.6 Z" fill="#1E3238"/><path d="M834.6 487.0 L822.7 510.3 L846.6 510.3 Z M834.6 499.4 L819.5 522.7 L849.8 522.7 Z M834.6 511.8 L816.3 535.2 L853.0 535.2 Z M834.6 524.2 L813.0 547.6 L856.2 547.6 Z M834.6 536.6 L809.8 560.0 L859.5 560.0 Z M833.2 552.7 h2.9 V564.0 h-2.9 Z" fill="#1E3238"/><path d="M873.2 422.8 L850.8 466.7 L895.6 466.7 Z M873.2 446.1 L844.8 490.0 L901.7 490.0 Z M873.2 469.5 L838.7 513.4 L907.7 513.4 Z M873.2 492.8 L832.7 536.7 L913.8 536.7 Z M873.2 516.1 L826.6 560.0 L919.9 560.0 Z M870.5 546.3 h5.5 V564.0 h-5.5 Z" fill="#1E3238"/><path d="M912.9 454.5 L895.7 488.2 L930.1 488.2 Z M912.9 472.4 L891.0 506.2 L934.8 506.2 Z M912.9 490.4 L886.3 524.1 L939.4 524.1 Z M912.9 508.3 L881.7 542.1 L944.1 542.1 Z M912.9 526.2 L877.0 560.0 L948.8 560.0 Z M910.8 549.4 h4.2 V564.0 h-4.2 Z" fill="#1E3238"/><path d="M947.9 483.1 L935.3 507.7 L960.4 507.7 Z M947.9 496.2 L931.9 520.8 L963.8 520.8 Z M947.9 509.3 L928.5 533.9 L967.2 533.9 Z M947.9 522.3 L925.1 546.9 L970.6 546.9 Z M947.9 535.4 L921.7 560.0 L974.0 560.0 Z M946.3 552.3 h3.1 V564.0 h-3.1 Z" fill="#1E3238"/><path d="M985.8 454.1 L968.5 488.0 L1003.0 488.0 Z M985.8 472.1 L963.8 506.0 L1007.7 506.0 Z M985.8 490.1 L959.1 524.0 L1012.4 524.0 Z M985.8 508.1 L954.4 542.0 L1017.1 542.0 Z M985.8 526.1 L949.8 560.0 L1021.8 560.0 Z M983.6 549.4 h4.2 V564.0 h-4.2 Z" fill="#1E3238"/><path d="M1010.2 494.9 L999.6 515.7 L1020.9 515.7 Z M1010.2 506.0 L996.7 526.8 L1023.7 526.8 Z M1010.2 517.0 L993.9 537.9 L1026.6 537.9 Z M1010.2 528.1 L991.0 548.9 L1029.5 548.9 Z M1010.2 539.2 L988.1 560.0 L1032.4 560.0 Z M1008.9 553.5 h2.6 V564.0 h-2.6 Z" fill="#1E3238"/><path d="M1048.7 420.8 L1025.9 465.4 L1071.4 465.4 Z M1048.7 444.5 L1019.8 489.0 L1077.5 489.0 Z M1048.7 468.1 L1013.6 512.7 L1083.7 512.7 Z M1048.7 491.8 L1007.5 536.3 L1089.8 536.3 Z M1048.7 515.5 L1001.3 560.0 L1096.0 560.0 Z M1045.9 546.1 h5.6 V564.0 h-5.6 Z" fill="#1E3238"/><path d="M1068.3 436.0 L1048.1 475.6 L1088.6 475.6 Z M1068.3 457.0 L1042.6 496.7 L1094.1 496.7 Z M1068.3 478.1 L1037.1 517.8 L1099.5 517.8 Z M1068.3 499.2 L1031.6 538.9 L1105.0 538.9 Z M1068.3 520.3 L1026.2 560.0 L1110.5 560.0 Z M1065.8 547.6 h5.0 V564.0 h-5.0 Z" fill="#1E3238"/><path d="M1095.9 487.9 L1084.1 511.0 L1107.6 511.0 Z M1095.9 500.2 L1080.9 523.2 L1110.8 523.2 Z M1095.9 512.4 L1077.8 535.5 L1114.0 535.5 Z M1095.9 524.7 L1074.6 547.7 L1117.2 547.7 Z M1095.9 536.9 L1071.4 560.0 L1120.4 560.0 Z M1094.4 552.8 h2.9 V564.0 h-2.9 Z" fill="#1E3238"/><path d="M1120.6 438.5 L1100.8 477.4 L1140.4 477.4 Z M1120.6 459.2 L1095.4 498.0 L1145.8 498.0 Z M1120.6 479.8 L1090.0 518.7 L1151.2 518.7 Z M1120.6 500.5 L1084.6 539.3 L1156.5 539.3 Z M1120.6 521.1 L1079.3 560.0 L1161.9 560.0 Z M1118.2 547.8 h4.9 V564.0 h-4.9 Z" fill="#1E3238"/><path d="M1159.5 496.5 L1149.1 516.8 L1169.8 516.8 Z M1159.5 507.3 L1146.3 527.6 L1172.6 527.6 Z M1159.5 518.1 L1143.5 538.4 L1175.5 538.4 Z M1159.5 528.9 L1140.7 549.2 L1178.3 549.2 Z M1159.5 539.7 L1137.9 560.0 L1181.1 560.0 Z M1158.2 553.6 h2.5 V564.0 h-2.5 Z" fill="#1E3238"/><path d="M1192.0 496.4 L1181.6 516.8 L1202.4 516.8 Z M1192.0 507.2 L1178.8 527.6 L1205.2 527.6 Z M1192.0 518.0 L1176.0 538.4 L1208.0 538.4 Z M1192.0 528.8 L1173.2 549.2 L1210.8 549.2 Z M1192.0 539.6 L1170.4 560.0 L1213.6 560.0 Z M1190.8 553.6 h2.5 V564.0 h-2.5 Z" fill="#1E3238"/><path d="M1227.1 473.5 L1213.0 501.2 L1241.2 501.2 Z M1227.1 488.2 L1209.2 515.9 L1245.1 515.9 Z M1227.1 502.9 L1205.4 530.6 L1248.9 530.6 Z M1227.1 517.6 L1201.5 545.3 L1252.7 545.3 Z M1227.1 532.3 L1197.7 560.0 L1256.5 560.0 Z M1225.4 551.4 h3.5 V564.0 h-3.5 Z" fill="#1E3238"/><path d="M1266.2 421.5 L1243.6 465.9 L1288.8 465.9 Z M1266.2 445.1 L1237.5 489.4 L1294.9 489.4 Z M1266.2 468.6 L1231.4 512.9 L1301.0 512.9 Z M1266.2 492.2 L1225.3 536.5 L1307.2 536.5 Z M1266.2 515.7 L1219.1 560.0 L1313.3 560.0 Z M1263.4 546.2 h5.5 V564.0 h-5.5 Z" fill="#1E3238"/><path d="M1296.1 420.1 L1273.3 464.9 L1318.9 464.9 Z M1296.1 443.9 L1267.1 488.7 L1325.1 488.7 Z M1296.1 467.7 L1260.9 512.4 L1331.3 512.4 Z M1296.1 491.5 L1254.7 536.2 L1337.5 536.2 Z M1296.1 515.2 L1248.5 560.0 L1343.6 560.0 Z M1293.3 546.0 h5.6 V564.0 h-5.6 Z" fill="#1E3238"/><path d="M1321.2 493.8 L1310.4 515.0 L1332.0 515.0 Z M1321.2 505.1 L1307.5 526.3 L1334.9 526.3 Z M1321.2 516.3 L1304.5 537.5 L1337.8 537.5 Z M1321.2 527.6 L1301.6 548.8 L1340.7 548.8 Z M1321.2 538.8 L1298.7 560.0 L1343.7 560.0 Z M1319.9 553.4 h2.6 V564.0 h-2.6 Z" fill="#1E3238"/><path d="M1353.4 497.5 L1343.2 517.5 L1363.6 517.5 Z M1353.4 508.1 L1340.4 528.1 L1366.3 528.1 Z M1353.4 518.7 L1337.6 538.7 L1369.1 538.7 Z M1353.4 529.4 L1334.9 549.4 L1371.9 549.4 Z M1353.4 540.0 L1332.1 560.0 L1374.6 560.0 Z M1352.1 553.7 h2.5 V564.0 h-2.5 Z" fill="#1E3238"/><path d="M1375.7 467.4 L1360.6 497.0 L1390.8 497.0 Z M1375.7 483.1 L1356.5 512.8 L1394.9 512.8 Z M1375.7 498.9 L1352.4 528.5 L1399.0 528.5 Z M1375.7 514.6 L1348.3 544.3 L1403.1 544.3 Z M1375.7 530.4 L1344.2 560.0 L1407.2 560.0 Z M1373.9 550.7 h3.7 V564.0 h-3.7 Z" fill="#1E3238"/><path d="M1408.2 487.5 L1396.3 510.7 L1420.0 510.7 Z M1408.2 499.8 L1393.1 523.0 L1423.2 523.0 Z M1408.2 512.2 L1389.9 535.4 L1426.4 535.4 Z M1408.2 524.5 L1386.7 547.7 L1429.6 547.7 Z M1408.2 536.8 L1383.5 560.0 L1432.8 560.0 Z M1406.7 552.8 h2.9 V564.0 h-2.9 Z" fill="#1E3238"/><path d="M1426.7 430.6 L1405.6 472.0 L1447.8 472.0 Z M1426.7 452.6 L1399.9 494.0 L1453.5 494.0 Z M1426.7 474.6 L1394.1 516.0 L1459.3 516.0 Z M1426.7 496.6 L1388.4 538.0 L1465.0 538.0 Z M1426.7 518.6 L1382.7 560.0 L1470.7 560.0 Z M1424.1 547.1 h5.2 V564.0 h-5.2 Z" fill="#1E3238"/><path d="M1451.9 423.3 L1429.6 467.0 L1474.2 467.0 Z M1451.9 446.5 L1423.5 490.3 L1480.2 490.3 Z M1451.9 469.8 L1417.5 513.5 L1486.3 513.5 Z M1451.9 493.0 L1411.5 536.8 L1492.3 536.8 Z M1451.9 516.3 L1405.4 560.0 L1498.4 560.0 Z M1449.2 546.3 h5.5 V564.0 h-5.5 Z" fill="#1E3238"/><path d="M1491.4 469.8 L1476.6 498.6 L1506.1 498.6 Z M1491.4 485.1 L1472.6 514.0 L1510.1 514.0 Z M1491.4 500.5 L1468.7 529.3 L1514.1 529.3 Z M1491.4 515.8 L1464.7 544.7 L1518.0 544.7 Z M1491.4 531.1 L1460.7 560.0 L1522.0 560.0 Z M1489.6 551.0 h3.6 V564.0 h-3.6 Z" fill="#1E3238"/><path d="M1520.1 458.4 L1503.6 490.9 L1536.7 490.9 Z M1520.1 475.7 L1499.1 508.2 L1541.2 508.2 Z M1520.1 492.9 L1494.6 525.5 L1545.7 525.5 Z M1520.1 510.2 L1490.1 542.7 L1550.2 542.7 Z M1520.1 527.5 L1485.6 560.0 L1554.7 560.0 Z M1518.1 549.8 h4.1 V564.0 h-4.1 Z" fill="#1E3238"/><path d="M1553.4 452.3 L1535.8 486.8 L1571.0 486.8 Z M1553.4 470.6 L1531.1 505.1 L1575.7 505.1 Z M1553.4 488.9 L1526.3 523.4 L1580.5 523.4 Z M1553.4 507.3 L1521.6 541.7 L1585.3 541.7 Z M1553.4 525.6 L1516.8 560.0 L1590.0 560.0 Z M1551.3 549.2 h4.3 V564.0 h-4.3 Z" fill="#1E3238"/><path d="M1584.6 450.4 L1566.7 485.5 L1602.5 485.5 Z M1584.6 469.0 L1561.9 504.1 L1607.3 504.1 Z M1584.6 487.7 L1557.0 522.7 L1612.2 522.7 Z M1584.6 506.3 L1552.2 541.4 L1617.0 541.4 Z M1584.6 524.9 L1547.3 560.0 L1621.9 560.0 Z M1582.4 549.0 h4.4 V564.0 h-4.4 Z" fill="#1E3238"/><path d="M1625.2 459.4 L1608.7 491.6 L1641.6 491.6 Z M1625.2 476.5 L1604.3 508.7 L1646.0 508.7 Z M1625.2 493.6 L1599.9 525.8 L1650.5 525.8 Z M1625.2 510.7 L1595.4 542.9 L1654.9 542.9 Z M1625.2 527.8 L1591.0 560.0 L1659.4 560.0 Z M1623.2 549.9 h4.0 V564.0 h-4.0 Z" fill="#1E3238"/><path d="M1653.2 442.4 L1634.0 480.0 L1672.4 480.0 Z M1653.2 462.4 L1628.8 500.0 L1677.6 500.0 Z M1653.2 482.4 L1623.6 520.0 L1682.8 520.0 Z M1653.2 502.4 L1618.4 540.0 L1688.0 540.0 Z M1653.2 522.4 L1613.2 560.0 L1693.2 560.0 Z M1650.9 548.2 h4.7 V564.0 h-4.7 Z" fill="#1E3238"/><path d="M1676.5 475.9 L1662.8 502.8 L1690.3 502.8 Z M1676.5 490.2 L1659.1 517.1 L1694.0 517.1 Z M1676.5 504.5 L1655.4 531.4 L1697.7 531.4 Z M1676.5 518.8 L1651.7 545.7 L1701.4 545.7 Z M1676.5 533.1 L1648.0 560.0 L1705.1 560.0 Z M1674.9 551.6 h3.4 V564.0 h-3.4 Z" fill="#1E3238"/><path d="M1718.0 458.3 L1701.4 490.9 L1734.6 490.9 Z M1718.0 475.6 L1696.9 508.1 L1739.1 508.1 Z M1718.0 492.9 L1692.4 525.4 L1743.6 525.4 Z M1718.0 510.2 L1687.9 542.7 L1748.1 542.7 Z M1718.0 527.5 L1683.4 560.0 L1752.6 560.0 Z M1716.0 549.8 h4.1 V564.0 h-4.1 Z" fill="#1E3238"/><path d="M1748.9 499.1 L1739.0 518.6 L1758.9 518.6 Z M1748.9 509.4 L1736.3 528.9 L1761.6 528.9 Z M1748.9 519.8 L1733.6 539.3 L1764.3 539.3 Z M1748.9 530.2 L1730.9 549.6 L1767.0 549.6 Z M1748.9 540.5 L1728.2 560.0 L1769.7 560.0 Z M1747.7 553.9 h2.4 V564.0 h-2.4 Z" fill="#1E3238"/><path d="M1776.6 453.6 L1759.2 487.6 L1794.0 487.6 Z M1776.6 471.7 L1754.5 505.7 L1798.7 505.7 Z M1776.6 489.8 L1749.8 523.8 L1803.4 523.8 Z M1776.6 507.9 L1745.1 541.9 L1808.1 541.9 Z M1776.6 526.0 L1740.4 560.0 L1812.8 560.0 Z M1774.5 549.4 h4.3 V564.0 h-4.3 Z" fill="#1E3238"/><path d="M1794.6 450.7 L1776.8 485.7 L1812.4 485.7 Z M1794.6 469.3 L1771.9 504.3 L1817.3 504.3 Z M1794.6 487.9 L1767.1 522.9 L1822.1 522.9 Z M1794.6 506.5 L1762.3 541.4 L1826.9 541.4 Z M1794.6 525.0 L1757.5 560.0 L1831.8 560.0 Z M1792.4 549.1 h4.4 V564.0 h-4.4 Z" fill="#1E3238"/><path d="M1827.6 495.2 L1817.0 515.9 L1838.2 515.9 Z M1827.6 506.2 L1814.2 526.9 L1841.0 526.9 Z M1827.6 517.2 L1811.3 538.0 L1843.9 538.0 Z M1827.6 528.2 L1808.4 549.0 L1846.8 549.0 Z M1827.6 539.3 L1805.6 560.0 L1849.6 560.0 Z M1826.3 553.5 h2.6 V564.0 h-2.6 Z" fill="#1E3238"/><path d="M1860.5 462.7 L1844.6 493.8 L1876.3 493.8 Z M1860.5 479.2 L1840.3 510.4 L1880.6 510.4 Z M1860.5 495.8 L1836.0 526.9 L1884.9 526.9 Z M1860.5 512.3 L1831.7 543.5 L1889.2 543.5 Z M1860.5 528.9 L1827.4 560.0 L1893.5 560.0 Z M1858.5 550.3 h3.9 V564.0 h-3.9 Z" fill="#1E3238"/><path d="M1894.6 471.8 L1880.2 500.0 L1909.0 500.0 Z M1894.6 486.8 L1876.3 515.0 L1912.9 515.0 Z M1894.6 501.8 L1872.4 530.0 L1916.8 530.0 Z M1894.6 516.8 L1868.5 545.0 L1920.7 545.0 Z M1894.6 531.8 L1864.6 560.0 L1924.6 560.0 Z M1892.8 551.2 h3.5 V564.0 h-3.5 Z" fill="#1E3238"/><path d="M1929.4 441.0 L1910.0 479.1 L1948.9 479.1 Z M1929.4 461.2 L1904.7 499.3 L1954.1 499.3 Z M1929.4 481.4 L1899.5 519.5 L1959.4 519.5 Z M1929.4 501.7 L1894.2 539.8 L1964.6 539.8 Z M1929.4 521.9 L1889.0 560.0 L1969.9 560.0 Z M1927.0 548.1 h4.8 V564.0 h-4.8 Z" fill="#1E3238"/><path d="M1947.5 495.2 L1936.9 515.9 L1958.1 515.9 Z M1947.5 506.2 L1934.0 526.9 L1960.9 526.9 Z M1947.5 517.2 L1931.2 538.0 L1963.8 538.0 Z M1947.5 528.2 L1928.3 549.0 L1966.7 549.0 Z M1947.5 539.2 L1925.4 560.0 L1969.5 560.0 Z M1946.2 553.5 h2.6 V564.0 h-2.6 Z" fill="#1E3238"/><rect y="476" width="1920" height="98" fill="#2A4248" opacity="0.25" filter="url(#f)"/><rect y="658" width="1920" height="452" fill="#1B2D32"/><path d="M-1.5 548.9 L-24.2 593.4 L21.2 593.4 Z M-1.5 572.5 L-30.3 617.0 L27.4 617.0 Z M-1.5 596.2 L-36.5 640.7 L33.5 640.7 Z M-1.5 619.8 L-42.6 664.3 L39.7 664.3 Z M-1.5 643.5 L-48.8 688.0 L45.8 688.0 Z M-4.3 674.1 h5.6 V692.0 h-5.6 Z" fill="#1B2D32"/><path d="M46.1 506.5 L16.4 564.6 L75.7 564.6 Z M46.1 537.4 L8.4 595.4 L83.7 595.4 Z M46.1 568.2 L0.4 626.3 L91.7 626.3 Z M46.1 599.1 L-7.6 657.1 L99.7 657.1 Z M46.1 629.9 L-15.6 688.0 L107.8 688.0 Z M42.4 669.9 h7.3 V692.0 h-7.3 Z" fill="#1B2D32"/><path d="M88.1 534.9 L63.1 583.9 L113.0 583.9 Z M88.1 560.9 L56.3 609.9 L119.8 609.9 Z M88.1 586.9 L49.5 635.9 L126.6 635.9 Z M88.1 613.0 L42.8 662.0 L133.3 662.0 Z M88.1 639.0 L36.0 688.0 L140.1 688.0 Z M85.0 672.7 h6.1 V692.0 h-6.1 Z" fill="#1B2D32"/><path d="M129.7 534.2 L104.6 583.4 L154.8 583.4 Z M129.7 560.4 L97.9 609.6 L161.6 609.6 Z M129.7 586.5 L91.1 635.7 L168.4 635.7 Z M129.7 612.7 L84.3 661.9 L175.2 661.9 Z M129.7 638.8 L77.5 688.0 L182.0 688.0 Z M126.7 672.6 h6.2 V692.0 h-6.2 Z" fill="#1B2D32"/><path d="M182.9 542.7 L159.2 589.2 L206.6 589.2 Z M182.9 567.4 L152.8 613.9 L213.1 613.9 Z M182.9 592.1 L146.4 638.6 L219.5 638.6 Z M182.9 616.8 L140.0 663.3 L225.9 663.3 Z M182.9 641.5 L133.5 688.0 L232.3 688.0 Z M180.0 673.5 h5.8 V692.0 h-5.8 Z" fill="#1B2D32"/><path d="M227.2 484.2 L194.0 549.4 L260.5 549.4 Z M227.2 518.9 L185.0 584.1 L269.5 584.1 Z M227.2 553.5 L176.0 618.7 L278.5 618.7 Z M227.2 588.2 L167.0 653.4 L287.5 653.4 Z M227.2 622.8 L158.0 688.0 L296.5 688.0 Z M223.2 667.6 h8.2 V692.0 h-8.2 Z" fill="#1B2D32"/><path d="M257.3 509.4 L228.2 566.6 L286.5 566.6 Z M257.3 539.8 L220.3 596.9 L294.4 596.9 Z M257.3 570.1 L212.4 627.3 L302.3 627.3 Z M257.3 600.5 L204.5 657.6 L310.2 657.6 Z M257.3 630.9 L196.6 688.0 L318.1 688.0 Z M253.8 670.1 h7.1 V692.0 h-7.1 Z" fill="#1B2D32"/><path d="M316.2 541.6 L292.3 588.4 L340.1 588.4 Z M316.2 566.5 L285.8 613.3 L346.6 613.3 Z M316.2 591.3 L279.3 638.2 L353.0 638.2 Z M316.2 616.2 L272.9 663.1 L359.5 663.1 Z M316.2 641.1 L266.4 688.0 L366.0 688.0 Z M313.3 673.4 h5.9 V692.0 h-5.9 Z" fill="#1B2D32"/><path d="M354.2 480.3 L320.3 546.8 L388.1 546.8 Z M354.2 515.6 L311.1 582.1 L397.3 582.1 Z M354.2 550.9 L302.0 617.4 L406.5 617.4 Z M354.2 586.2 L292.8 652.7 L415.6 652.7 Z M354.2 621.5 L283.6 688.0 L424.8 688.0 Z M350.1 667.2 h8.3 V692.0 h-8.3 Z" fill="#1B2D32"/><path d="M392.9 556.8 L371.5 598.8 L414.3 598.8 Z M392.9 579.1 L365.7 621.1 L420.1 621.1 Z M392.9 601.4 L359.9 643.4 L425.9 643.4 Z M392.9 623.7 L354.1 665.7 L431.7 665.7 Z M392.9 646.0 L348.3 688.0 L437.5 688.0 Z M390.3 674.9 h5.2 V692.0 h-5.2 Z" fill="#1B2D32"/><path d="M439.6 493.4 L407.8 555.7 L471.3 555.7 Z M439.6 526.5 L399.2 588.8 L479.9 588.8 Z M439.6 559.6 L390.6 621.8 L488.5 621.8 Z M439.6 592.7 L382.0 654.9 L497.1 654.9 Z M439.6 625.7 L373.4 688.0 L505.7 688.0 Z M435.7 668.5 h7.8 V692.0 h-7.8 Z" fill="#1B2D32"/><path d="M472.7 540.1 L448.6 587.4 L496.9 587.4 Z M472.7 565.2 L442.0 612.6 L503.4 612.6 Z M472.7 590.4 L435.5 637.7 L509.9 637.7 Z M472.7 615.5 L429.0 662.9 L516.5 662.9 Z M472.7 640.7 L422.4 688.0 L523.0 688.0 Z M469.8 673.2 h5.9 V692.0 h-5.9 Z" fill="#1B2D32"/><path d="M515.3 476.6 L480.8 544.3 L549.8 544.3 Z M515.3 512.6 L471.4 580.2 L559.1 580.2 Z M515.3 548.5 L462.1 616.1 L568.4 616.1 Z M515.3 584.4 L452.7 652.1 L577.8 652.1 Z M515.3 620.4 L443.4 688.0 L587.1 688.0 Z M511.0 666.9 h8.5 V692.0 h-8.5 Z" fill="#1B2D32"/><path d="M562.1 473.9 L527.1 542.4 L597.0 542.4 Z M562.1 510.3 L517.7 578.8 L606.5 578.8 Z M562.1 546.7 L508.2 615.2 L615.9 615.2 Z M562.1 583.1 L498.7 651.6 L625.4 651.6 Z M562.1 619.5 L489.3 688.0 L634.9 688.0 Z M557.8 666.6 h8.6 V692.0 h-8.6 Z" fill="#1B2D32"/><path d="M597.9 538.2 L573.5 586.2 L622.4 586.2 Z M597.9 563.7 L566.9 611.6 L629.0 611.6 Z M597.9 589.2 L560.3 637.1 L635.6 637.1 Z M597.9 614.6 L553.6 662.5 L642.2 662.5 Z M597.9 640.1 L547.0 688.0 L648.9 688.0 Z M594.9 673.0 h6.0 V692.0 h-6.0 Z" fill="#1B2D32"/><path d="M653.3 470.3 L617.8 539.9 L688.9 539.9 Z M653.3 507.3 L608.2 577.0 L698.5 577.0 Z M653.3 544.3 L598.6 614.0 L708.1 614.0 Z M653.3 581.3 L588.9 651.0 L717.7 651.0 Z M653.3 618.3 L579.3 688.0 L727.4 688.0 Z M649.0 666.2 h8.7 V692.0 h-8.7 Z" fill="#1B2D32"/><path d="M700.7 552.1 L678.5 595.6 L722.8 595.6 Z M700.7 575.2 L672.5 618.7 L728.8 618.7 Z M700.7 598.3 L666.5 641.8 L734.8 641.8 Z M700.7 621.4 L660.5 664.9 L740.9 664.9 Z M700.7 644.5 L654.4 688.0 L746.9 688.0 Z M697.9 674.4 h5.4 V692.0 h-5.4 Z" fill="#1B2D32"/><path d="M734.6 514.3 L706.2 569.9 L762.9 569.9 Z M734.6 543.9 L698.5 599.4 L770.6 599.4 Z M734.6 573.4 L690.9 629.0 L778.3 629.0 Z M734.6 602.9 L683.2 658.5 L785.9 658.5 Z M734.6 632.4 L675.5 688.0 L793.6 688.0 Z M731.1 670.6 h6.9 V692.0 h-6.9 Z" fill="#1B2D32"/><path d="M771.3 480.0 L737.4 546.5 L805.3 546.5 Z M771.3 515.3 L728.2 581.9 L814.5 581.9 Z M771.3 550.7 L719.0 617.3 L823.7 617.3 Z M771.3 586.1 L709.8 652.6 L832.8 652.6 Z M771.3 621.4 L700.6 688.0 L842.0 688.0 Z M767.1 667.2 h8.3 V692.0 h-8.3 Z" fill="#1B2D32"/><path d="M834.3 557.2 L813.0 599.1 L855.7 599.1 Z M834.3 579.5 L807.2 621.3 L861.5 621.3 Z M834.3 601.7 L801.4 643.5 L867.2 643.5 Z M834.3 623.9 L795.7 665.8 L873.0 665.8 Z M834.3 646.2 L789.9 688.0 L878.8 688.0 Z M831.7 674.9 h5.2 V692.0 h-5.2 Z" fill="#1B2D32"/><path d="M874.7 479.9 L840.7 546.5 L908.6 546.5 Z M874.7 515.3 L831.5 581.9 L917.8 581.9 Z M874.7 550.7 L822.3 617.2 L927.0 617.2 Z M874.7 586.0 L813.1 652.6 L936.2 652.6 Z M874.7 621.4 L803.9 688.0 L945.4 688.0 Z M870.5 667.2 h8.3 V692.0 h-8.3 Z" fill="#1B2D32"/><path d="M929.7 480.0 L895.8 546.6 L963.7 546.6 Z M929.7 515.4 L886.6 581.9 L972.9 581.9 Z M929.7 550.7 L877.4 617.3 L982.0 617.3 Z M929.7 586.1 L868.2 652.6 L991.2 652.6 Z M929.7 621.4 L859.0 688.0 L1000.4 688.0 Z M925.6 667.2 h8.3 V692.0 h-8.3 Z" fill="#1B2D32"/><path d="M972.7 563.9 L952.5 603.6 L993.0 603.6 Z M972.7 585.0 L947.0 624.7 L998.5 624.7 Z M972.7 606.1 L941.5 645.8 L1004.0 645.8 Z M972.7 627.2 L936.0 666.9 L1009.4 666.9 Z M972.7 648.3 L930.6 688.0 L1014.9 688.0 Z M970.3 675.6 h5.0 V692.0 h-5.0 Z" fill="#1B2D32"/><path d="M1013.6 481.6 L979.9 547.6 L1047.3 547.6 Z M1013.6 516.7 L970.8 582.7 L1056.4 582.7 Z M1013.6 551.8 L961.7 617.8 L1065.5 617.8 Z M1013.6 586.8 L952.5 652.9 L1074.7 652.9 Z M1013.6 621.9 L943.4 688.0 L1083.8 688.0 Z M1009.5 667.4 h8.3 V692.0 h-8.3 Z" fill="#1B2D32"/><path d="M1053.6 537.1 L1029.0 585.4 L1078.2 585.4 Z M1053.6 562.7 L1022.3 611.0 L1084.9 611.0 Z M1053.6 588.4 L1015.6 636.7 L1091.6 636.7 Z M1053.6 614.0 L1009.0 662.3 L1098.3 662.3 Z M1053.6 639.7 L1002.3 688.0 L1104.9 688.0 Z M1050.6 672.9 h6.0 V692.0 h-6.0 Z" fill="#1B2D32"/><path d="M1099.5 527.9 L1073.4 579.2 L1125.7 579.2 Z M1099.5 555.2 L1066.3 606.4 L1132.7 606.4 Z M1099.5 582.4 L1059.3 633.6 L1139.8 633.6 Z M1099.5 609.6 L1052.2 660.8 L1146.9 660.8 Z M1099.5 636.8 L1045.1 688.0 L1153.9 688.0 Z M1096.3 672.0 h6.4 V692.0 h-6.4 Z" fill="#1B2D32"/><path d="M1145.2 465.8 L1108.9 536.9 L1181.4 536.9 Z M1145.2 503.6 L1099.1 574.7 L1191.2 574.7 Z M1145.2 541.4 L1089.3 612.5 L1201.1 612.5 Z M1145.2 579.1 L1079.4 650.2 L1210.9 650.2 Z M1145.2 616.9 L1069.6 688.0 L1220.7 688.0 Z M1140.7 665.8 h8.9 V692.0 h-8.9 Z" fill="#1B2D32"/><path d="M1180.5 579.4 L1162.8 614.2 L1198.2 614.2 Z M1180.5 597.9 L1158.0 632.6 L1203.0 632.6 Z M1180.5 616.3 L1153.2 651.1 L1207.8 651.1 Z M1180.5 634.8 L1148.4 669.5 L1212.6 669.5 Z M1180.5 653.3 L1143.6 688.0 L1217.4 688.0 Z M1178.3 677.1 h4.3 V692.0 h-4.3 Z" fill="#1B2D32"/><path d="M1247.8 470.9 L1212.4 540.4 L1283.2 540.4 Z M1247.8 507.8 L1202.8 577.3 L1292.8 577.3 Z M1247.8 544.7 L1193.2 614.2 L1302.4 614.2 Z M1247.8 581.6 L1183.6 651.1 L1312.0 651.1 Z M1247.8 618.5 L1174.0 688.0 L1321.6 688.0 Z M1243.4 666.3 h8.7 V692.0 h-8.7 Z" fill="#1B2D32"/><path d="M1316.9 526.1 L1290.4 577.9 L1343.3 577.9 Z M1316.9 553.7 L1283.3 605.5 L1350.4 605.5 Z M1316.9 581.2 L1276.1 633.0 L1357.6 633.0 Z M1316.9 608.7 L1269.0 660.5 L1364.7 660.5 Z M1316.9 636.2 L1261.8 688.0 L1371.9 688.0 Z M1313.6 671.8 h6.5 V692.0 h-6.5 Z" fill="#1B2D32"/><path d="M1384.4 465.0 L1348.0 536.4 L1420.8 536.4 Z M1384.4 502.9 L1338.2 574.3 L1430.7 574.3 Z M1384.4 540.8 L1328.3 612.2 L1440.5 612.2 Z M1384.4 578.7 L1318.5 650.1 L1450.4 650.1 Z M1384.4 616.6 L1308.6 688.0 L1460.3 688.0 Z M1380.0 665.7 h8.9 V692.0 h-8.9 Z" fill="#1B2D32"/><path d="M1422.4 487.6 L1389.7 551.7 L1455.2 551.7 Z M1422.4 521.6 L1380.9 585.8 L1464.0 585.8 Z M1422.4 555.7 L1372.0 619.8 L1472.9 619.8 Z M1422.4 589.8 L1363.2 653.9 L1481.7 653.9 Z M1422.4 623.9 L1354.3 688.0 L1490.6 688.0 Z M1418.4 668.0 h8.0 V692.0 h-8.0 Z" fill="#1B2D32"/><path d="M1485.4 497.8 L1454.4 558.7 L1516.5 558.7 Z M1485.4 530.1 L1446.0 591.0 L1524.9 591.0 Z M1485.4 562.5 L1437.6 623.3 L1533.3 623.3 Z M1485.4 594.8 L1429.2 655.7 L1541.7 655.7 Z M1485.4 627.1 L1420.7 688.0 L1550.1 688.0 Z M1481.6 669.0 h7.6 V692.0 h-7.6 Z" fill="#1B2D32"/><path d="M1535.5 544.2 L1512.0 590.2 L1559.0 590.2 Z M1535.5 568.6 L1505.7 614.6 L1565.3 614.6 Z M1535.5 593.1 L1499.3 639.1 L1571.7 639.1 Z M1535.5 617.5 L1492.9 663.5 L1578.0 663.5 Z M1535.5 642.0 L1486.6 688.0 L1584.4 688.0 Z M1532.6 673.6 h5.8 V692.0 h-5.8 Z" fill="#1B2D32"/><path d="M1578.3 551.8 L1556.1 595.4 L1600.6 595.4 Z M1578.3 574.9 L1550.1 618.5 L1606.6 618.5 Z M1578.3 598.1 L1544.1 641.7 L1612.6 641.7 Z M1578.3 621.3 L1538.0 664.8 L1618.6 664.8 Z M1578.3 644.4 L1532.0 688.0 L1624.6 688.0 Z M1575.6 674.4 h5.4 V692.0 h-5.4 Z" fill="#1B2D32"/><path d="M1610.1 507.0 L1580.6 564.9 L1639.6 564.9 Z M1610.1 537.8 L1572.6 595.7 L1647.6 595.7 Z M1610.1 568.5 L1564.6 626.5 L1655.6 626.5 Z M1610.1 599.3 L1556.6 657.2 L1663.6 657.2 Z M1610.1 630.1 L1548.6 688.0 L1671.6 688.0 Z M1606.5 669.9 h7.2 V692.0 h-7.2 Z" fill="#1B2D32"/><path d="M1650.8 479.5 L1616.7 546.2 L1684.8 546.2 Z M1650.8 515.0 L1607.5 581.7 L1694.0 581.7 Z M1650.8 550.4 L1598.3 617.1 L1703.2 617.1 Z M1650.8 585.9 L1589.1 652.6 L1712.4 652.6 Z M1650.8 621.3 L1579.9 688.0 L1721.6 688.0 Z M1646.6 667.2 h8.3 V692.0 h-8.3 Z" fill="#1B2D32"/><path d="M1681.6 468.0 L1645.7 538.4 L1717.5 538.4 Z M1681.6 505.4 L1635.9 575.8 L1727.2 575.8 Z M1681.6 542.8 L1626.2 613.2 L1736.9 613.2 Z M1681.6 580.2 L1616.5 650.6 L1746.7 650.6 Z M1681.6 617.6 L1606.8 688.0 L1756.4 688.0 Z M1677.2 666.0 h8.8 V692.0 h-8.8 Z" fill="#1B2D32"/><path d="M1738.7 465.4 L1702.4 536.7 L1775.1 536.7 Z M1738.7 503.3 L1692.6 574.5 L1784.9 574.5 Z M1738.7 541.1 L1682.8 612.3 L1794.7 612.3 Z M1738.7 578.9 L1672.9 650.2 L1804.6 650.2 Z M1738.7 616.8 L1663.1 688.0 L1814.4 688.0 Z M1734.3 665.7 h8.9 V692.0 h-8.9 Z" fill="#1B2D32"/><path d="M1804.1 468.4 L1768.3 538.7 L1840.0 538.7 Z M1804.1 505.8 L1758.6 576.0 L1849.7 576.0 Z M1804.1 543.1 L1748.9 613.3 L1859.4 613.3 Z M1804.1 580.4 L1739.2 650.7 L1869.1 650.7 Z M1804.1 617.7 L1729.5 688.0 L1878.8 688.0 Z M1799.8 666.0 h8.8 V692.0 h-8.8 Z" fill="#1B2D32"/><path d="M1856.6 578.4 L1838.7 613.5 L1874.5 613.5 Z M1856.6 597.0 L1833.8 632.1 L1879.3 632.1 Z M1856.6 615.6 L1829.0 650.7 L1884.2 650.7 Z M1856.6 634.3 L1824.1 669.4 L1889.0 669.4 Z M1856.6 652.9 L1819.3 688.0 L1893.8 688.0 Z M1854.4 677.0 h4.4 V692.0 h-4.4 Z" fill="#1B2D32"/><path d="M1915.8 558.7 L1894.7 600.1 L1936.9 600.1 Z M1915.8 580.7 L1889.0 622.1 L1942.7 622.1 Z M1915.8 602.7 L1883.3 644.0 L1948.4 644.0 Z M1915.8 624.6 L1877.6 666.0 L1954.1 666.0 Z M1915.8 646.6 L1871.9 688.0 L1959.8 688.0 Z M1913.2 675.1 h5.2 V692.0 h-5.2 Z" fill="#1B2D32"/><path d="M1957.0 497.8 L1926.0 558.7 L1988.0 558.7 Z M1957.0 530.1 L1917.6 591.0 L1996.5 591.0 Z M1957.0 562.5 L1909.2 623.3 L2004.9 623.3 Z M1957.0 594.8 L1900.7 655.7 L2013.3 655.7 Z M1957.0 627.1 L1892.3 688.0 L2021.7 688.0 Z M1953.2 669.0 h7.6 V692.0 h-7.6 Z" fill="#1B2D32"/><rect y="549" width="1920" height="162" fill="#2A4248" opacity="0.21" filter="url(#f)"/><rect y="786" width="1920" height="324" fill="#16252A"/><path d="M-23.4 502.2 L-74.7 602.6 L27.8 602.6 Z M-23.4 555.6 L-88.5 656.0 L41.6 656.0 Z M-23.4 608.9 L-102.4 709.3 L55.5 709.3 Z M-23.4 662.3 L-116.3 762.7 L69.4 762.7 Z M-23.4 715.6 L-130.1 816.0 L83.2 816.0 Z M-29.7 784.6 h12.6 V820.0 h-12.6 Z" fill="#16252A"/><path d="M51.8 602.7 L16.9 670.9 L86.6 670.9 Z M51.8 638.9 L7.5 707.2 L96.0 707.2 Z M51.8 675.2 L-1.9 743.5 L105.4 743.5 Z M51.8 711.5 L-11.3 779.7 L114.9 779.7 Z M51.8 747.7 L-20.8 816.0 L124.3 816.0 Z M47.5 794.7 h8.5 V820.0 h-8.5 Z" fill="#16252A"/><path d="M106.6 515.2 L57.5 611.5 L155.7 611.5 Z M106.6 566.4 L44.2 662.6 L169.0 662.6 Z M106.6 617.5 L30.9 713.7 L182.2 713.7 Z M106.6 668.6 L17.6 764.9 L195.5 764.9 Z M106.6 719.8 L4.3 816.0 L208.8 816.0 Z M100.6 785.9 h12.0 V820.0 h-12.0 Z" fill="#16252A"/><path d="M174.1 528.6 L127.2 620.5 L221.0 620.5 Z M174.1 577.4 L114.5 669.4 L233.7 669.4 Z M174.1 626.3 L101.8 718.3 L246.4 718.3 Z M174.1 675.2 L89.1 767.1 L259.2 767.1 Z M174.1 724.0 L76.4 816.0 L271.9 816.0 Z M168.4 787.3 h11.5 V820.0 h-11.5 Z" fill="#16252A"/><path d="M234.6 626.8 L203.7 687.4 L265.5 687.4 Z M234.6 659.0 L195.4 719.5 L273.8 719.5 Z M234.6 691.2 L187.0 751.7 L282.2 751.7 Z M234.6 723.3 L178.6 783.8 L290.5 783.8 Z M234.6 755.5 L170.3 816.0 L298.9 816.0 Z M230.8 797.1 h7.6 V820.0 h-7.6 Z" fill="#16252A"/><path d="M305.4 522.8 L257.5 616.6 L353.2 616.6 Z M305.4 572.6 L244.6 666.5 L366.2 666.5 Z M305.4 622.5 L231.6 716.3 L379.2 716.3 Z M305.4 672.3 L218.7 766.2 L392.1 766.2 Z M305.4 722.2 L205.7 816.0 L405.1 816.0 Z M299.5 786.7 h11.7 V820.0 h-11.7 Z" fill="#16252A"/><path d="M355.6 527.0 L308.4 619.5 L402.8 619.5 Z M355.6 576.1 L295.7 668.6 L415.5 668.6 Z M355.6 625.3 L282.9 717.7 L428.3 717.7 Z M355.6 674.4 L270.1 766.9 L441.1 766.9 Z M355.6 723.5 L257.3 816.0 L453.9 816.0 Z M349.8 787.1 h11.6 V820.0 h-11.6 Z" fill="#16252A"/><path d="M448.4 524.6 L400.8 617.8 L495.9 617.8 Z M448.4 574.1 L387.9 667.4 L508.8 667.4 Z M448.4 623.7 L375.1 716.9 L521.7 716.9 Z M448.4 673.2 L362.2 766.5 L534.6 766.5 Z M448.4 722.7 L349.3 816.0 L547.5 816.0 Z M442.5 786.9 h11.7 V820.0 h-11.7 Z" fill="#16252A"/><path d="M535.6 658.7 L509.9 709.1 L561.2 709.1 Z M535.6 685.5 L502.9 735.8 L568.2 735.8 Z M535.6 712.2 L496.0 762.5 L575.1 762.5 Z M535.6 738.9 L489.0 789.3 L582.1 789.3 Z M535.6 765.7 L482.1 816.0 L589.0 816.0 Z M532.4 800.3 h6.3 V820.0 h-6.3 Z" fill="#16252A"/><path d="M611.7 515.1 L562.6 611.4 L660.8 611.4 Z M611.7 566.2 L549.3 662.5 L674.1 662.5 Z M611.7 617.4 L536.0 713.7 L687.4 713.7 Z M611.7 668.6 L522.7 764.8 L700.7 764.8 Z M611.7 719.7 L509.4 816.0 L714.0 816.0 Z M605.7 785.9 h12.0 V820.0 h-12.0 Z" fill="#16252A"/><path d="M655.0 614.4 L622.1 678.9 L687.9 678.9 Z M655.0 648.7 L613.2 713.2 L696.8 713.2 Z M655.0 682.9 L604.3 747.5 L705.8 747.5 Z M655.0 717.2 L595.4 781.7 L714.7 781.7 Z M655.0 751.5 L586.5 816.0 L723.6 816.0 Z M651.0 795.8 h8.1 V820.0 h-8.1 Z" fill="#16252A"/><path d="M710.8 571.4 L670.9 649.7 L750.7 649.7 Z M710.8 613.0 L660.0 691.3 L761.5 691.3 Z M710.8 654.6 L649.2 732.8 L772.3 732.8 Z M710.8 696.2 L638.4 774.4 L783.1 774.4 Z M710.8 737.7 L627.6 816.0 L793.9 816.0 Z M705.9 791.5 h9.8 V820.0 h-9.8 Z" fill="#16252A"/><path d="M775.3 580.6 L736.8 655.9 L813.7 655.9 Z M775.3 620.6 L726.4 695.9 L824.1 695.9 Z M775.3 660.6 L716.0 735.9 L834.5 735.9 Z M775.3 700.6 L705.6 776.0 L844.9 776.0 Z M775.3 740.7 L695.2 816.0 L855.3 816.0 Z M770.5 792.5 h9.4 V820.0 h-9.4 Z" fill="#16252A"/><path d="M859.8 659.7 L834.3 709.7 L885.3 709.7 Z M859.8 686.3 L827.4 736.3 L892.2 736.3 Z M859.8 712.8 L820.5 762.9 L899.1 762.9 Z M859.8 739.4 L813.5 789.4 L906.0 789.4 Z M859.8 766.0 L806.6 816.0 L912.9 816.0 Z M856.7 800.4 h6.3 V820.0 h-6.3 Z" fill="#16252A"/><path d="M903.4 638.7 L874.4 695.4 L932.3 695.4 Z M903.4 668.8 L866.6 725.6 L940.2 725.6 Z M903.4 699.0 L858.8 755.7 L948.0 755.7 Z M903.4 729.1 L850.9 785.9 L955.8 785.9 Z M903.4 759.3 L843.1 816.0 L963.7 816.0 Z M899.8 798.3 h7.1 V820.0 h-7.1 Z" fill="#16252A"/><path d="M951.0 648.5 L923.6 702.1 L978.3 702.1 Z M951.0 677.0 L916.2 730.6 L985.7 730.6 Z M951.0 705.5 L908.8 759.1 L993.1 759.1 Z M951.0 733.9 L901.4 787.5 L1000.5 787.5 Z M951.0 762.4 L894.0 816.0 L1007.9 816.0 Z M947.6 799.3 h6.7 V820.0 h-6.7 Z" fill="#16252A"/><path d="M1046.7 516.5 L997.8 612.3 L1095.6 612.3 Z M1046.7 567.4 L984.6 663.2 L1108.8 663.2 Z M1046.7 618.3 L971.4 714.2 L1122.1 714.2 Z M1046.7 669.2 L958.1 765.1 L1135.3 765.1 Z M1046.7 720.1 L944.9 816.0 L1148.6 816.0 Z M1040.7 786.0 h12.0 V820.0 h-12.0 Z" fill="#16252A"/><path d="M1092.1 575.6 L1052.9 652.6 L1131.3 652.6 Z M1092.1 616.5 L1042.3 693.4 L1142.0 693.4 Z M1092.1 657.4 L1031.6 734.3 L1152.6 734.3 Z M1092.1 698.2 L1021.0 775.1 L1163.2 775.1 Z M1092.1 739.1 L1010.4 816.0 L1173.8 816.0 Z M1087.3 792.0 h9.6 V820.0 h-9.6 Z" fill="#16252A"/><path d="M1150.5 607.2 L1116.4 674.0 L1184.6 674.0 Z M1150.5 642.7 L1107.2 709.5 L1193.8 709.5 Z M1150.5 678.2 L1098.0 745.0 L1203.1 745.0 Z M1150.5 713.7 L1088.7 780.5 L1212.3 780.5 Z M1150.5 749.2 L1079.5 816.0 L1221.5 816.0 Z M1146.3 795.1 h8.4 V820.0 h-8.4 Z" fill="#16252A"/><path d="M1210.9 551.3 L1167.7 636.0 L1254.1 636.0 Z M1210.9 596.3 L1156.0 681.0 L1265.8 681.0 Z M1210.9 641.3 L1144.3 726.0 L1277.5 726.0 Z M1210.9 686.3 L1132.6 771.0 L1289.2 771.0 Z M1210.9 731.3 L1120.9 816.0 L1300.9 816.0 Z M1205.6 789.5 h10.6 V820.0 h-10.6 Z" fill="#16252A"/><path d="M1284.7 599.4 L1249.3 668.7 L1320.0 668.7 Z M1284.7 636.2 L1239.8 705.5 L1329.6 705.5 Z M1284.7 673.0 L1230.2 742.3 L1339.2 742.3 Z M1284.7 709.9 L1220.6 779.2 L1348.8 779.2 Z M1284.7 746.7 L1211.0 816.0 L1358.3 816.0 Z M1280.4 794.3 h8.7 V820.0 h-8.7 Z" fill="#16252A"/><path d="M1336.0 604.8 L1301.6 672.4 L1370.5 672.4 Z M1336.0 640.7 L1292.2 708.3 L1379.8 708.3 Z M1336.0 676.6 L1282.9 744.2 L1389.2 744.2 Z M1336.0 712.5 L1273.5 780.1 L1398.5 780.1 Z M1336.0 748.4 L1264.2 816.0 L1407.8 816.0 Z M1331.8 794.9 h8.4 V820.0 h-8.4 Z" fill="#16252A"/><path d="M1383.5 566.7 L1342.9 646.5 L1424.2 646.5 Z M1383.5 609.1 L1331.8 688.8 L1435.3 688.8 Z M1383.5 651.4 L1320.8 731.2 L1446.3 731.2 Z M1383.5 693.8 L1309.8 773.6 L1457.3 773.6 Z M1383.5 736.2 L1298.8 816.0 L1468.3 816.0 Z M1378.6 791.1 h10.0 V820.0 h-10.0 Z" fill="#16252A"/><path d="M1464.6 596.1 L1428.8 666.5 L1500.5 666.5 Z M1464.6 633.5 L1419.0 703.9 L1510.2 703.9 Z M1464.6 670.9 L1409.3 741.2 L1520.0 741.2 Z M1464.6 708.3 L1399.6 778.6 L1529.7 778.6 Z M1464.6 745.6 L1389.9 816.0 L1539.4 816.0 Z M1460.2 794.0 h8.8 V820.0 h-8.8 Z" fill="#16252A"/><path d="M1509.7 630.0 L1479.3 689.5 L1540.0 689.5 Z M1509.7 661.6 L1471.1 721.1 L1548.2 721.1 Z M1509.7 693.2 L1462.9 752.8 L1556.5 752.8 Z M1509.7 724.9 L1454.7 784.4 L1564.7 784.4 Z M1509.7 756.5 L1446.4 816.0 L1572.9 816.0 Z M1506.0 797.4 h7.4 V820.0 h-7.4 Z" fill="#16252A"/><path d="M1571.3 558.5 L1529.3 640.9 L1613.4 640.9 Z M1571.3 602.2 L1517.9 684.7 L1624.8 684.7 Z M1571.3 646.0 L1506.5 728.4 L1636.1 728.4 Z M1571.3 689.8 L1495.2 772.2 L1647.5 772.2 Z M1571.3 733.6 L1483.8 816.0 L1658.9 816.0 Z M1566.2 790.2 h10.3 V820.0 h-10.3 Z" fill="#16252A"/><path d="M1656.2 596.1 L1620.3 666.5 L1692.1 666.5 Z M1656.2 633.5 L1610.6 703.9 L1701.8 703.9 Z M1656.2 670.9 L1600.9 741.2 L1711.5 741.2 Z M1656.2 708.3 L1591.2 778.6 L1721.3 778.6 Z M1656.2 745.6 L1581.5 816.0 L1731.0 816.0 Z M1651.8 794.0 h8.8 V820.0 h-8.8 Z" fill="#16252A"/><path d="M1742.1 555.3 L1699.6 638.8 L1784.7 638.8 Z M1742.1 599.7 L1688.1 683.1 L1796.2 683.1 Z M1742.1 644.0 L1676.6 727.4 L1807.7 727.4 Z M1742.1 688.3 L1665.0 771.7 L1819.2 771.7 Z M1742.1 732.6 L1653.5 816.0 L1830.8 816.0 Z M1736.9 789.9 h10.4 V820.0 h-10.4 Z" fill="#16252A"/><path d="M1807.1 597.4 L1771.4 667.4 L1842.8 667.4 Z M1807.1 634.6 L1761.8 704.5 L1852.4 704.5 Z M1807.1 671.7 L1752.1 741.7 L1862.1 741.7 Z M1807.1 708.9 L1742.5 778.8 L1871.8 778.8 Z M1807.1 746.1 L1732.8 816.0 L1881.4 816.0 Z M1802.7 794.1 h8.7 V820.0 h-8.7 Z" fill="#16252A"/><path d="M1875.7 541.9 L1831.0 629.6 L1920.5 629.6 Z M1875.7 588.5 L1818.9 676.2 L1932.6 676.2 Z M1875.7 635.1 L1806.8 722.8 L1944.7 722.8 Z M1875.7 681.7 L1794.7 769.4 L1956.8 769.4 Z M1875.7 728.3 L1782.6 816.0 L1968.9 816.0 Z M1870.3 788.6 h11.0 V820.0 h-11.0 Z" fill="#16252A"/><path d="M1940.1 543.4 L1895.6 630.6 L1984.6 630.6 Z M1940.1 589.7 L1883.5 677.0 L1996.6 677.0 Z M1940.1 636.1 L1871.5 723.3 L2008.7 723.3 Z M1940.1 682.4 L1859.4 769.7 L2020.7 769.7 Z M1940.1 728.8 L1847.4 816.0 L2032.8 816.0 Z M1934.6 788.7 h10.9 V820.0 h-10.9 Z" fill="#16252A"/><rect y="622" width="1920" height="227" fill="#2A4248" opacity="0.17" filter="url(#f)"/><rect y="914" width="1920" height="196" fill="#101C20"/><path d="M-30.2 626.4 L-82.0 728.0 L21.6 728.0 Z M-30.2 680.4 L-96.1 782.0 L35.7 782.0 Z M-30.2 734.4 L-110.1 836.0 L49.7 836.0 Z M-30.2 788.4 L-124.1 890.0 L63.7 890.0 Z M-30.2 842.4 L-138.2 944.0 L77.8 944.0 Z M-36.5 912.2 h12.7 V948.0 h-12.7 Z" fill="#101C20"/><path d="M72.4 724.8 L36.6 795.0 L108.2 795.0 Z M72.4 762.1 L27.0 832.2 L117.9 832.2 Z M72.4 799.3 L17.3 869.5 L127.6 869.5 Z M72.4 836.6 L7.6 906.7 L137.2 906.7 Z M72.4 873.9 L-2.1 944.0 L146.9 944.0 Z M68.0 922.1 h8.8 V948.0 h-8.8 Z" fill="#101C20"/><path d="M155.3 649.7 L107.3 743.9 L203.4 743.9 Z M155.3 699.7 L94.3 793.9 L216.4 793.9 Z M155.3 749.8 L81.3 843.9 L229.4 843.9 Z M155.3 799.8 L68.3 894.0 L242.4 894.0 Z M155.3 849.8 L55.3 944.0 L255.4 944.0 Z M149.5 914.6 h11.8 V948.0 h-11.8 Z" fill="#101C20"/><path d="M271.4 541.5 L205.7 670.3 L337.1 670.3 Z M271.4 609.9 L187.9 738.7 L354.9 738.7 Z M271.4 678.3 L170.1 807.1 L372.7 807.1 Z M271.4 746.8 L152.3 875.6 L390.5 875.6 Z M271.4 815.2 L134.5 944.0 L408.2 944.0 Z M263.3 903.7 h16.1 V948.0 h-16.1 Z" fill="#101C20"/><path d="M350.6 549.7 L286.3 675.8 L415.0 675.8 Z M350.6 616.7 L268.8 742.9 L432.4 742.9 Z M350.6 683.7 L251.4 809.9 L449.8 809.9 Z M350.6 750.8 L234.0 877.0 L467.3 877.0 Z M350.6 817.8 L216.6 944.0 L484.7 944.0 Z M342.7 904.6 h15.8 V948.0 h-15.8 Z" fill="#101C20"/><path d="M460.2 684.4 L417.8 767.5 L502.6 767.5 Z M460.2 728.5 L406.4 811.6 L514.0 811.6 Z M460.2 772.7 L394.9 855.7 L525.5 855.7 Z M460.2 816.8 L383.4 899.9 L537.0 899.9 Z M460.2 860.9 L371.9 944.0 L548.5 944.0 Z M455.0 918.0 h10.4 V948.0 h-10.4 Z" fill="#101C20"/><path d="M546.0 713.9 L508.4 787.5 L583.5 787.5 Z M546.0 753.0 L498.3 826.6 L593.7 826.6 Z M546.0 792.1 L488.1 865.8 L603.9 865.8 Z M546.0 831.2 L477.9 904.9 L614.1 904.9 Z M546.0 870.4 L467.8 944.0 L624.2 944.0 Z M541.4 921.0 h9.2 V948.0 h-9.2 Z" fill="#101C20"/><path d="M657.2 599.6 L601.0 709.8 L713.4 709.8 Z M657.2 658.1 L585.8 768.4 L728.6 768.4 Z M657.2 716.7 L570.5 826.9 L743.9 826.9 Z M657.2 775.2 L555.3 885.5 L759.1 885.5 Z M657.2 833.8 L540.1 944.0 L774.3 944.0 Z M650.3 909.6 h13.8 V948.0 h-13.8 Z" fill="#101C20"/><path d="M773.8 572.0 L713.1 691.0 L834.5 691.0 Z M773.8 635.2 L696.6 754.3 L851.0 754.3 Z M773.8 698.5 L680.2 817.5 L867.4 817.5 Z M773.8 761.7 L663.8 880.8 L883.8 880.8 Z M773.8 825.0 L647.3 944.0 L900.3 944.0 Z M766.4 906.8 h14.9 V948.0 h-14.9 Z" fill="#101C20"/><path d="M874.4 584.4 L815.7 699.5 L933.1 699.5 Z M874.4 645.6 L799.8 760.6 L949.0 760.6 Z M874.4 706.7 L783.9 821.8 L964.9 821.8 Z M874.4 767.8 L768.0 882.9 L980.8 882.9 Z M874.4 828.9 L752.1 944.0 L996.6 944.0 Z M867.2 908.0 h14.4 V948.0 h-14.4 Z" fill="#101C20"/><path d="M967.4 718.1 L930.6 790.4 L1004.3 790.4 Z M967.4 756.5 L920.6 828.8 L1014.3 828.8 Z M967.4 794.9 L910.6 867.2 L1024.3 867.2 Z M967.4 833.3 L900.6 905.6 L1034.3 905.6 Z M967.4 871.7 L890.6 944.0 L1044.2 944.0 Z M962.9 921.4 h9.0 V948.0 h-9.0 Z" fill="#101C20"/><path d="M1062.2 739.0 L1028.8 804.6 L1095.7 804.6 Z M1062.2 773.8 L1019.7 839.4 L1104.8 839.4 Z M1062.2 808.7 L1010.6 874.3 L1113.8 874.3 Z M1062.2 843.5 L1001.6 909.1 L1122.9 909.1 Z M1062.2 878.4 L992.5 944.0 L1131.9 944.0 Z M1058.1 923.5 h8.2 V948.0 h-8.2 Z" fill="#101C20"/><path d="M1124.7 575.8 L1064.6 693.7 L1184.8 693.7 Z M1124.7 638.4 L1048.3 756.2 L1201.0 756.2 Z M1124.7 701.0 L1032.1 818.8 L1217.3 818.8 Z M1124.7 763.6 L1015.8 881.4 L1233.6 881.4 Z M1124.7 826.2 L999.5 944.0 L1249.9 944.0 Z M1117.3 907.2 h14.7 V948.0 h-14.7 Z" fill="#101C20"/><path d="M1179.9 720.5 L1143.4 792.0 L1216.4 792.0 Z M1179.9 758.5 L1133.6 830.0 L1226.3 830.0 Z M1179.9 796.5 L1123.7 868.0 L1236.1 868.0 Z M1179.9 834.5 L1113.8 906.0 L1246.0 906.0 Z M1179.9 872.5 L1103.9 944.0 L1255.9 944.0 Z M1175.4 921.7 h8.9 V948.0 h-8.9 Z" fill="#101C20"/><path d="M1239.1 553.3 L1175.4 678.4 L1302.9 678.4 Z M1239.1 619.8 L1158.1 744.8 L1320.2 744.8 Z M1239.1 686.2 L1140.8 811.2 L1337.4 811.2 Z M1239.1 752.6 L1123.6 877.6 L1354.7 877.6 Z M1239.1 819.0 L1106.3 944.0 L1372.0 944.0 Z M1231.3 904.9 h15.6 V948.0 h-15.6 Z" fill="#101C20"/><path d="M1304.2 735.0 L1270.1 801.9 L1338.3 801.9 Z M1304.2 770.5 L1260.8 837.4 L1347.5 837.4 Z M1304.2 806.1 L1251.6 872.9 L1356.8 872.9 Z M1304.2 841.6 L1242.4 908.5 L1366.0 908.5 Z M1304.2 877.1 L1233.1 944.0 L1375.2 944.0 Z M1300.0 923.1 h8.4 V948.0 h-8.4 Z" fill="#101C20"/><path d="M1417.4 714.3 L1380.0 787.8 L1454.9 787.8 Z M1417.4 753.3 L1369.8 826.8 L1465.1 826.8 Z M1417.4 792.4 L1359.6 865.9 L1475.2 865.9 Z M1417.4 831.4 L1349.5 904.9 L1485.4 904.9 Z M1417.4 870.5 L1339.3 944.0 L1495.5 944.0 Z M1412.8 921.0 h9.2 V948.0 h-9.2 Z" fill="#101C20"/><path d="M1530.9 597.2 L1474.3 708.2 L1587.5 708.2 Z M1530.9 656.2 L1459.0 767.1 L1602.8 767.1 Z M1530.9 715.1 L1443.6 826.1 L1618.1 826.1 Z M1530.9 774.1 L1428.3 885.0 L1633.5 885.0 Z M1530.9 833.0 L1413.0 944.0 L1648.8 944.0 Z M1523.9 909.3 h13.9 V948.0 h-13.9 Z" fill="#101C20"/><path d="M1643.8 538.1 L1577.5 668.0 L1710.0 668.0 Z M1643.8 607.1 L1559.6 737.0 L1727.9 737.0 Z M1643.8 676.1 L1541.6 806.0 L1745.9 806.0 Z M1643.8 745.1 L1523.7 875.0 L1763.8 875.0 Z M1643.8 814.1 L1505.7 944.0 L1781.8 944.0 Z M1635.6 903.4 h16.2 V948.0 h-16.2 Z" fill="#101C20"/><path d="M1737.9 570.7 L1677.0 690.1 L1798.8 690.1 Z M1737.9 634.1 L1660.5 753.6 L1815.3 753.6 Z M1737.9 697.6 L1644.0 817.1 L1831.8 817.1 Z M1737.9 761.1 L1627.5 880.5 L1848.3 880.5 Z M1737.9 824.5 L1611.0 944.0 L1864.8 944.0 Z M1730.4 906.7 h14.9 V948.0 h-14.9 Z" fill="#101C20"/><path d="M1792.6 577.3 L1732.7 694.6 L1852.4 694.6 Z M1792.6 639.6 L1716.5 757.0 L1868.6 757.0 Z M1792.6 702.0 L1700.3 819.3 L1884.8 819.3 Z M1792.6 764.3 L1684.1 881.7 L1901.0 881.7 Z M1792.6 826.7 L1667.9 944.0 L1917.2 944.0 Z M1785.2 907.3 h14.7 V948.0 h-14.7 Z" fill="#101C20"/><path d="M1881.8 588.4 L1823.7 702.2 L1939.8 702.2 Z M1881.8 648.8 L1808.0 762.6 L1955.5 762.6 Z M1881.8 709.3 L1792.3 823.1 L1971.2 823.1 Z M1881.8 769.7 L1776.6 883.5 L1987.0 883.5 Z M1881.8 830.2 L1760.9 944.0 L2002.7 944.0 Z M1874.7 908.4 h14.2 V948.0 h-14.2 Z" fill="#101C20"/><path d="M1941.5 581.2 L1882.3 697.3 L2000.8 697.3 Z M1941.5 642.9 L1866.3 759.0 L2016.8 759.0 Z M1941.5 704.6 L1850.3 820.7 L2032.8 820.7 Z M1941.5 766.2 L1834.2 882.3 L2048.9 882.3 Z M1941.5 827.9 L1818.2 944.0 L2064.9 944.0 Z M1934.3 907.7 h14.5 V948.0 h-14.5 Z" fill="#101C20"/><rect y="694" width="1920" height="291" fill="#2A4248" opacity="0.13" filter="url(#f)"/><rect y="1042" width="1920" height="68" fill="#0A1216"/><path d="M-37.6 737.0 L-92.2 844.2 L17.1 844.2 Z M-37.6 793.9 L-107.0 901.1 L31.9 901.1 Z M-37.6 850.9 L-121.8 958.1 L46.7 958.1 Z M-37.6 907.8 L-136.6 1015.0 L61.5 1015.0 Z M-37.6 964.8 L-151.5 1072.0 L76.3 1072.0 Z M-44.3 1038.5 h13.4 V1076.0 h-13.4 Z" fill="#0A1216"/><path d="M76.1 608.0 L0.4 756.5 L151.8 756.5 Z M76.1 686.9 L-20.1 835.4 L172.3 835.4 Z M76.1 765.8 L-40.7 914.2 L192.8 914.2 Z M76.1 844.6 L-61.2 993.1 L213.3 993.1 Z M76.1 923.5 L-81.7 1072.0 L233.8 1072.0 Z M66.8 1025.6 h18.6 V1076.0 h-18.6 Z" fill="#0A1216"/><path d="M161.1 774.0 L112.5 869.3 L209.7 869.3 Z M161.1 824.6 L99.3 920.0 L222.9 920.0 Z M161.1 875.3 L86.1 970.7 L236.1 970.7 Z M161.1 926.0 L73.0 1021.3 L249.3 1021.3 Z M161.1 976.6 L59.8 1072.0 L262.4 1072.0 Z M155.1 1042.2 h11.9 V1076.0 h-11.9 Z" fill="#0A1216"/><path d="M246.8 662.3 L180.0 793.4 L313.7 793.4 Z M246.8 732.0 L161.9 863.1 L331.8 863.1 Z M246.8 801.6 L143.8 932.7 L349.9 932.7 Z M246.8 871.3 L125.6 1002.4 L368.0 1002.4 Z M246.8 940.9 L107.5 1072.0 L386.1 1072.0 Z M238.6 1031.0 h16.4 V1076.0 h-16.4 Z" fill="#0A1216"/><path d="M377.3 719.2 L319.7 832.1 L434.9 832.1 Z M377.3 779.2 L304.2 892.1 L450.5 892.1 Z M377.3 839.2 L288.6 952.0 L466.1 952.0 Z M377.3 899.1 L273.0 1012.0 L481.7 1012.0 Z M377.3 959.1 L257.4 1072.0 L497.3 1072.0 Z M370.3 1036.7 h14.1 V1076.0 h-14.1 Z" fill="#0A1216"/><path d="M473.5 718.5 L415.8 831.6 L531.2 831.6 Z M473.5 778.6 L400.2 891.7 L546.8 891.7 Z M473.5 838.7 L384.5 951.8 L562.4 951.8 Z M473.5 898.8 L368.9 1011.9 L578.1 1011.9 Z M473.5 958.9 L353.3 1072.0 L593.7 1072.0 Z M466.4 1036.6 h14.1 V1076.0 h-14.1 Z" fill="#0A1216"/><path d="M568.1 712.9 L509.5 827.8 L626.7 827.8 Z M568.1 774.0 L493.7 888.9 L642.6 888.9 Z M568.1 835.0 L477.8 949.9 L658.5 949.9 Z M568.1 896.1 L461.9 1011.0 L674.3 1011.0 Z M568.1 957.1 L446.0 1072.0 L690.2 1072.0 Z M560.9 1036.1 h14.4 V1076.0 h-14.4 Z" fill="#0A1216"/><path d="M639.0 691.9 L577.0 813.5 L701.1 813.5 Z M639.0 756.5 L560.2 878.2 L717.9 878.2 Z M639.0 821.1 L543.4 942.8 L734.7 942.8 Z M639.0 885.8 L526.6 1007.4 L751.5 1007.4 Z M639.0 950.4 L509.8 1072.0 L768.3 1072.0 Z M631.4 1034.0 h15.2 V1076.0 h-15.2 Z" fill="#0A1216"/><path d="M789.0 714.3 L730.7 828.8 L847.4 828.8 Z M789.0 775.1 L714.9 889.6 L863.2 889.6 Z M789.0 835.9 L699.0 950.4 L879.0 950.4 Z M789.0 896.7 L683.2 1011.2 L894.8 1011.2 Z M789.0 957.5 L667.4 1072.0 L910.6 1072.0 Z M781.9 1036.2 h14.3 V1076.0 h-14.3 Z" fill="#0A1216"/><path d="M919.0 778.9 L871.1 872.7 L966.8 872.7 Z M919.0 828.7 L858.2 922.5 L979.8 922.5 Z M919.0 878.5 L845.2 972.3 L992.7 972.3 Z M919.0 928.4 L832.3 1022.2 L1005.7 1022.2 Z M919.0 978.2 L819.3 1072.0 L1018.6 1072.0 Z M913.1 1042.7 h11.7 V1076.0 h-11.7 Z" fill="#0A1216"/><path d="M1043.9 626.4 L971.2 769.0 L1116.6 769.0 Z M1043.9 702.2 L951.5 844.8 L1136.3 844.8 Z M1043.9 777.9 L931.8 920.5 L1156.0 920.5 Z M1043.9 853.7 L912.1 996.3 L1175.7 996.3 Z M1043.9 929.4 L892.4 1072.0 L1195.4 1072.0 Z M1035.0 1027.4 h17.8 V1076.0 h-17.8 Z" fill="#0A1216"/><path d="M1167.3 687.6 L1104.6 810.6 L1230.0 810.6 Z M1167.3 753.0 L1087.6 876.0 L1247.0 876.0 Z M1167.3 818.3 L1070.6 941.3 L1264.0 941.3 Z M1167.3 883.7 L1053.6 1006.7 L1281.0 1006.7 Z M1167.3 949.0 L1036.6 1072.0 L1298.0 1072.0 Z M1159.6 1033.6 h15.4 V1076.0 h-15.4 Z" fill="#0A1216"/><path d="M1273.8 655.4 L1205.8 788.7 L1341.8 788.7 Z M1273.8 726.2 L1187.4 859.5 L1360.2 859.5 Z M1273.8 797.0 L1169.0 930.4 L1378.6 930.4 Z M1273.8 867.9 L1150.6 1001.2 L1397.0 1001.2 Z M1273.8 938.7 L1132.2 1072.0 L1415.4 1072.0 Z M1265.5 1030.3 h16.7 V1076.0 h-16.7 Z" fill="#0A1216"/><path d="M1417.1 781.8 L1369.7 874.6 L1464.4 874.6 Z M1417.1 831.1 L1356.9 924.0 L1477.3 924.0 Z M1417.1 880.4 L1344.1 973.3 L1490.1 973.3 Z M1417.1 929.8 L1331.2 1022.7 L1502.9 1022.7 Z M1417.1 979.1 L1318.4 1072.0 L1515.8 1072.0 Z M1411.3 1043.0 h11.6 V1076.0 h-11.6 Z" fill="#0A1216"/><path d="M1489.1 628.5 L1416.7 770.4 L1561.5 770.4 Z M1489.1 703.9 L1397.1 845.8 L1581.1 845.8 Z M1489.1 779.3 L1377.5 921.2 L1600.7 921.2 Z M1489.1 854.7 L1357.9 996.6 L1620.3 996.6 Z M1489.1 930.1 L1338.3 1072.0 L1639.9 1072.0 Z M1480.2 1027.6 h17.7 V1076.0 h-17.7 Z" fill="#0A1216"/><path d="M1634.1 687.6 L1571.4 810.6 L1696.8 810.6 Z M1634.1 752.9 L1554.4 875.9 L1713.8 875.9 Z M1634.1 818.3 L1537.4 941.3 L1730.8 941.3 Z M1634.1 883.6 L1520.4 1006.6 L1747.8 1006.6 Z M1634.1 949.0 L1503.4 1072.0 L1764.8 1072.0 Z M1626.4 1033.6 h15.4 V1076.0 h-15.4 Z" fill="#0A1216"/><path d="M1737.0 636.0 L1665.8 775.5 L1808.1 775.5 Z M1737.0 710.1 L1646.5 849.6 L1827.4 849.6 Z M1737.0 784.2 L1627.3 923.7 L1846.7 923.7 Z M1737.0 858.3 L1608.0 997.9 L1866.0 997.9 Z M1737.0 932.5 L1588.7 1072.0 L1885.2 1072.0 Z M1728.3 1028.4 h17.4 V1076.0 h-17.4 Z" fill="#0A1216"/><path d="M1817.0 751.6 L1764.7 854.1 L1869.3 854.1 Z M1817.0 806.0 L1750.6 908.6 L1883.5 908.6 Z M1817.0 860.5 L1736.4 963.0 L1897.6 963.0 Z M1817.0 915.0 L1722.2 1017.5 L1911.8 1017.5 Z M1817.0 969.5 L1708.1 1072.0 L1926.0 1072.0 Z M1810.6 1040.0 h12.8 V1076.0 h-12.8 Z" fill="#0A1216"/><path d="M1898.2 670.1 L1832.6 798.7 L1963.8 798.7 Z M1898.2 738.4 L1814.9 867.0 L1981.6 867.0 Z M1898.2 806.7 L1797.1 935.3 L1999.4 935.3 Z M1898.2 875.1 L1779.3 1003.7 L2017.1 1003.7 Z M1898.2 943.4 L1761.6 1072.0 L2034.9 1072.0 Z M1890.2 1031.8 h16.1 V1076.0 h-16.1 Z" fill="#0A1216"/><rect y="767" width="1920" height="356" fill="#2A4248" opacity="0.08" filter="url(#f)"/><rect y="1170" width="1920" height="-60" fill="#03070A"/><path d="M-30.7 692.7 L-113.5 855.0 L52.1 855.0 Z M-30.7 778.9 L-135.9 941.3 L74.5 941.3 Z M-30.7 865.2 L-158.4 1027.5 L96.9 1027.5 Z M-30.7 951.4 L-180.8 1113.8 L119.4 1113.8 Z M-30.7 1037.7 L-203.2 1200.0 L141.8 1200.0 Z M-40.9 1149.3 h20.3 V1204.0 h-20.3 Z" fill="#03070A"/><path d="M144.4 811.2 L81.0 935.6 L207.8 935.6 Z M144.4 877.3 L63.8 1001.7 L225.0 1001.7 Z M144.4 943.4 L46.6 1067.8 L242.2 1067.8 Z M144.4 1009.5 L29.4 1133.9 L259.4 1133.9 Z M144.4 1075.6 L12.2 1200.0 L276.6 1200.0 Z M136.6 1161.1 h15.6 V1204.0 h-15.6 Z" fill="#03070A"/><path d="M293.5 776.0 L224.3 911.7 L362.7 911.7 Z M293.5 848.1 L205.5 983.8 L381.4 983.8 Z M293.5 920.2 L186.8 1055.9 L400.1 1055.9 Z M293.5 992.3 L168.1 1127.9 L418.9 1127.9 Z M293.5 1064.3 L149.3 1200.0 L437.6 1200.0 Z M285.0 1157.6 h17.0 V1204.0 h-17.0 Z" fill="#03070A"/><path d="M458.1 724.6 L380.5 876.7 L535.7 876.7 Z M458.1 805.4 L359.5 957.5 L556.7 957.5 Z M458.1 886.2 L338.5 1038.4 L577.7 1038.4 Z M458.1 967.1 L317.5 1119.2 L598.7 1119.2 Z M458.1 1047.9 L296.5 1200.0 L619.7 1200.0 Z M448.6 1152.5 h19.0 V1204.0 h-19.0 Z" fill="#03070A"/><path d="M561.1 834.7 L501.5 951.6 L620.8 951.6 Z M561.1 896.8 L485.4 1013.7 L636.9 1013.7 Z M561.1 958.9 L469.2 1075.8 L653.1 1075.8 Z M561.1 1021.0 L453.1 1137.9 L669.2 1137.9 Z M561.1 1083.1 L437.0 1200.0 L685.3 1200.0 Z M553.8 1163.5 h14.6 V1204.0 h-14.6 Z" fill="#03070A"/><path d="M638.6 756.2 L566.1 898.2 L711.0 898.2 Z M638.6 831.6 L546.5 973.6 L730.6 973.6 Z M638.6 907.1 L526.9 1049.1 L750.2 1049.1 Z M638.6 982.5 L507.3 1124.5 L769.9 1124.5 Z M638.6 1058.0 L487.7 1200.0 L789.5 1200.0 Z M629.7 1155.6 h17.8 V1204.0 h-17.8 Z" fill="#03070A"/><path d="M753.8 848.3 L696.4 960.9 L811.2 960.9 Z M753.8 908.1 L680.8 1020.6 L826.7 1020.6 Z M753.8 967.9 L665.3 1080.4 L842.2 1080.4 Z M753.8 1027.7 L649.7 1140.2 L857.8 1140.2 Z M753.8 1087.5 L634.2 1200.0 L873.3 1200.0 Z M746.7 1164.8 h14.1 V1204.0 h-14.1 Z" fill="#03070A"/><path d="M866.6 803.4 L801.9 930.3 L931.3 930.3 Z M866.6 870.8 L784.4 997.7 L948.9 997.7 Z M866.6 938.2 L766.8 1065.2 L966.4 1065.2 Z M866.6 1005.7 L749.3 1132.6 L983.9 1132.6 Z M866.6 1073.1 L731.8 1200.0 L1001.5 1200.0 Z M858.7 1160.3 h15.9 V1204.0 h-15.9 Z" fill="#03070A"/><path d="M1022.9 856.9 L966.9 966.7 L1078.9 966.7 Z M1022.9 915.2 L951.7 1025.0 L1094.1 1025.0 Z M1022.9 973.6 L936.6 1083.4 L1109.2 1083.4 Z M1022.9 1031.9 L921.4 1141.7 L1124.4 1141.7 Z M1022.9 1090.2 L906.3 1200.0 L1139.6 1200.0 Z M1016.0 1165.7 h13.7 V1204.0 h-13.7 Z" fill="#03070A"/><path d="M1202.0 756.1 L1129.5 898.2 L1274.4 898.2 Z M1202.0 831.6 L1109.9 973.6 L1294.0 973.6 Z M1202.0 907.0 L1090.3 1049.1 L1313.7 1049.1 Z M1202.0 982.5 L1070.7 1124.5 L1333.3 1124.5 Z M1202.0 1058.0 L1051.1 1200.0 L1352.9 1200.0 Z M1193.1 1155.6 h17.8 V1204.0 h-17.8 Z" fill="#03070A"/><path d="M1339.9 759.6 L1268.0 900.5 L1411.8 900.5 Z M1339.9 834.5 L1248.5 975.4 L1431.2 975.4 Z M1339.9 909.3 L1229.1 1050.3 L1450.7 1050.3 Z M1339.9 984.2 L1209.6 1125.1 L1470.2 1125.1 Z M1339.9 1059.1 L1190.1 1200.0 L1489.6 1200.0 Z M1331.1 1156.0 h17.6 V1204.0 h-17.6 Z" fill="#03070A"/><path d="M1502.5 653.5 L1413.3 828.4 L1591.7 828.4 Z M1502.5 746.4 L1389.2 921.3 L1615.9 921.3 Z M1502.5 839.3 L1365.0 1014.2 L1640.0 1014.2 Z M1502.5 932.2 L1340.9 1107.1 L1664.2 1107.1 Z M1502.5 1025.1 L1316.7 1200.0 L1688.3 1200.0 Z M1491.6 1145.4 h21.9 V1204.0 h-21.9 Z" fill="#03070A"/><path d="M1636.0 755.6 L1563.5 897.8 L1708.5 897.8 Z M1636.0 831.2 L1543.8 973.4 L1728.2 973.4 Z M1636.0 906.7 L1524.2 1048.9 L1747.8 1048.9 Z M1636.0 982.2 L1504.6 1124.5 L1767.5 1124.5 Z M1636.0 1057.8 L1484.9 1200.0 L1787.1 1200.0 Z M1627.1 1155.6 h17.8 V1204.0 h-17.8 Z" fill="#03070A"/><path d="M1786.7 643.0 L1695.8 821.2 L1877.6 821.2 Z M1786.7 737.7 L1671.2 915.9 L1902.2 915.9 Z M1786.7 832.4 L1646.5 1010.6 L1926.8 1010.6 Z M1786.7 927.1 L1621.9 1105.3 L1951.4 1105.3 Z M1786.7 1021.8 L1597.3 1200.0 L1976.1 1200.0 Z M1775.5 1144.3 h22.3 V1204.0 h-22.3 Z" fill="#03070A"/><path d="M1903.7 679.9 L1818.8 846.3 L1988.6 846.3 Z M1903.7 768.3 L1795.8 934.8 L2011.6 934.8 Z M1903.7 856.7 L1772.9 1023.2 L2034.6 1023.2 Z M1903.7 945.2 L1749.9 1111.6 L2057.6 1111.6 Z M1903.7 1033.6 L1726.9 1200.0 L2080.5 1200.0 Z M1893.3 1148.0 h20.8 V1204.0 h-20.8 Z" fill="#03070A"/><rect y="840" width="1920" height="420" fill="#2A4248" opacity="0.00" filter="url(#f)"/><g transform="translate(70 970)">
  <rect x="1.5" y="1.5" width="31" height="31" rx="7" fill="none" stroke="#9AA7B1" stroke-width="2.2"/>
  <path d="M12 8 V24 H24" fill="none" stroke="#3AA69B" stroke-width="2.6" stroke-linecap="round" stroke-linejoin="round"/>
</g>
<path d="M117.2 995.0V976.75H119.675V992.75H127.8V995.0ZM137.0 995.2Q134.475 995.2 132.9875 993.75Q131.5 992.3 131.5 989.7V986.55Q131.5 983.95 132.9875 982.5Q134.475 981.05 137.0 981.05Q139.525 981.05 141.0125 982.5Q142.5 983.95 142.5 986.55V989.7Q142.5 992.3 141.0125 993.75Q139.525 995.2 137.0 995.2ZM137.0 993.025Q138.4 993.025 139.2125 992.2375Q140.025 991.45 140.025 989.925V986.325Q140.025 984.8 139.2125 984.0125Q138.4 983.225 137.0 983.225Q135.6 983.225 134.7875 984.0125Q133.975 984.8 133.975 986.325V989.925Q133.975 991.45 134.7875 992.2375Q135.6 993.025 137.0 993.025ZM152.7 995.25Q150.175 995.25 148.65 993.8375Q147.125 992.425 147.125 989.95V986.275Q147.125 983.825 148.65 982.4125Q150.175 981.0 152.7 981.0Q155.125 981.0 156.6125 982.2875Q158.1 983.575 158.175 985.8H155.725Q155.65 984.55 154.8375 983.8625Q154.025 983.175 152.7 983.175Q151.275 983.175 150.4375 983.9875Q149.6 984.8 149.6 986.275V989.95Q149.6 991.45 150.4375 992.25Q151.275 993.05 152.7 993.05Q154.05 993.05 154.85000000000002 992.375Q155.65 991.7 155.725 990.45H158.175Q158.1 992.675 156.6125 993.9625Q155.125 995.25 152.7 995.25ZM167.975 995.25Q165.55 995.25 164.10000000000002 993.825Q162.65 992.4 162.65 989.95V981.25H165.125V989.95Q165.125 991.4 165.8875 992.2375Q166.65 993.075 167.975 993.075Q169.325 993.075 170.1 992.2375Q170.875 991.4 170.875 989.95V981.25H173.35V989.95Q173.35 992.4 171.8875 993.825Q170.425 995.25 167.975 995.25ZM177.425 995.0V981.25H179.525V983.125H179.6Q179.7 982.175 180.3125 981.5875Q180.925 981.0 181.875 981.0Q182.8 981.0 183.425 981.55Q184.05 982.1 184.325 983.025Q184.475 982.075 185.1 981.5375Q185.725 981.0 186.675 981.0Q187.975 981.0 188.77499999999998 981.9875Q189.575 982.975 189.575 984.55V995.0H187.325V984.575Q187.325 983.8 186.9375 983.3375Q186.55 982.875 185.9 982.875Q185.25 982.875 184.875 983.325Q184.5 983.775 184.5 984.575V995.0H182.5V984.575Q182.5 983.8 182.125 983.3375Q181.75 982.875 181.1 982.875Q180.45 982.875 180.0625 983.325Q179.675 983.775 179.675 984.575V995.0ZM197.325 995.0 192.65 976.75H195.2L198.225 989.05Q198.525 990.225 198.7375 991.3125Q198.95 992.4 199.05 992.975Q199.125 992.4 199.3625 991.3Q199.6 990.2 199.875 989.025L202.8 976.75H205.35L200.65 995.0ZM209.075 995.0V992.75H213.9V983.5H209.575V981.25H216.375V992.75H220.9V995.0ZM214.9 978.825Q214.05 978.825 213.55 978.3875Q213.05 977.95 213.05 977.2Q213.05 976.425 213.55 975.9749999999999Q214.05 975.525 214.9 975.525Q215.75 975.525 216.25 975.9749999999999Q216.75 976.425 216.75 977.2Q216.75 977.95 216.25 978.3875Q215.75 978.825 214.9 978.825ZM230.0 995.25Q227.525 995.25 226.0125 993.775Q224.5 992.3 224.5 989.75V986.5Q224.5 983.95 226.0125 982.475Q227.525 981.0 230.0 981.0Q231.65 981.0 232.8875 981.6625Q234.125 982.325 234.8125 983.5125Q235.5 984.7 235.5 986.275V988.75H226.925V989.95Q226.925 991.45 227.75 992.3Q228.575 993.15 230.0 993.15Q231.2 993.15 231.975 992.7Q232.75 992.25 232.9 991.45H235.375Q235.125 993.2 233.65 994.225Q232.175 995.25 230.0 995.25ZM226.925 986.275V986.925H233.075V986.275Q233.075 984.7 232.27499999999998 983.85Q231.475 983.0 230.0 983.0Q228.525 983.0 227.72500000000002 983.85Q226.925 984.7 226.925 986.275ZM240.9 995.0 238.675 981.25H240.775L242.125 990.625Q242.2 991.25 242.27499999999998 991.975Q242.35 992.7 242.375 993.15Q242.425 992.7 242.5 991.975Q242.575 991.25 242.675 990.625L244.325 981.25H246.675L248.325 990.625Q248.425 991.25 248.5125 991.9625Q248.6 992.675 248.65 993.15Q248.7 992.675 248.77499999999998 991.9625Q248.85 991.25 248.925 990.625L250.325 981.25H252.325L250.0 995.0H247.35L245.825 985.75Q245.725 985.075 245.6375 984.25Q245.55 983.425 245.5 982.95Q245.475 983.425 245.3625 984.25Q245.25 985.075 245.15 985.75L243.575 995.0Z" fill="#9AA7B1"/>
</svg>
