<svg xmlns="http://www.w3.org/2000/svg" viewBox="0 0 480 220" width="960" height="440"><rect width="480" height="220" rx="18" fill="#151D28"/><rect x="36" y="34" width="190" height="118" rx="10" fill="#0E141C" stroke="#2A3644"/><rect x="74" y="54" width="114" height="62" rx="6" fill="#1E2A38" stroke="#2A3644"/><circle cx="84" cy="62" r="3" fill="#9AA7B4"/><circle cx="94" cy="62" r="3" fill="#9AA7B4"/><circle cx="104" cy="62" r="3" fill="#9AA7B4"/><rect x="94" y="128" width="74" height="18" rx="7" fill="#1E2A38" stroke="#5EEAD4" stroke-width="1.2"/><rect x="100" y="132" width="11" height="10" rx="3" fill="#5EEAD4"/><rect x="117" y="132" width="11" height="10" rx="3" fill="#9AA7B4"/><rect x="134" y="132" width="11" height="10" rx="3" fill="#9AA7B4"/><rect x="151" y="132" width="11" height="10" rx="3" fill="#9AA7B4"/><text x="131" y="174" font-family="Cantarell, Inter, sans-serif" font-size="15" font-weight="600" fill="#E6EDF3" text-anchor="middle">Mac style</text><rect x="254" y="34" width="190" height="118" rx="10" fill="#0E141C" stroke="#2A3644"/><rect x="292" y="54" width="114" height="62" rx="6" fill="#1E2A38" stroke="#2A3644"/><circle cx="376" cy="62" r="3" fill="#9AA7B4"/><circle cx="386" cy="62" r="3" fill="#9AA7B4"/><circle cx="396" cy="62" r="3" fill="#9AA7B4"/><rect x="258" y="134" width="182" height="14" rx="4" fill="#1E2A38" stroke="#5EEAD4" stroke-width="1.2"/><rect x="266" y="137" width="10" height="8" rx="2" fill="#5EEAD4"/><rect x="282" y="137" width="10" height="8" rx="2" fill="#9AA7B4"/><rect x="298" y="137" width="10" height="8" rx="2" fill="#9AA7B4"/><rect x="314" y="137" width="10" height="8" rx="2" fill="#9AA7B4"/><rect x="330" y="137" width="10" height="8" rx="2" fill="#9AA7B4"/><text x="349" y="174" font-family="Cantarell, Inter, sans-serif" font-size="15" font-weight="600" fill="#5EEAD4" text-anchor="middle">Windows style</text><rect x="196" y="190" width="88" height="22" rx="11" fill="#1E2A38" stroke="#5EEAD4" stroke-width="1.2"/><text x="240" y="205" font-family="Cantarell, Inter, sans-serif" font-size="12" font-weight="600" fill="#5EEAD4" text-anchor="middle">Layout</text></svg>
